<svg width="173" height="52" xmlns="http://www.w3.org/2000/svg" xmlns:xlink="http://www.w3.org/1999/xlink"><defs><path id="a" d="M0 .2h100v15.1H0z"/><path id="c" d="M.2.5h22.7v32.2H.2z"/><path id="e" d="M.5.5h22.8v32.2H.4z"/></defs><g fill="none" fill-rule="evenodd"><g transform="translate(0 36)"><mask id="b" fill="#fff"><use xlink:href="#a"/></mask><path d="M29.6 4.5zm.7 0zm25.3-1.3zM28.9 13.6zM38 10zm18.7 3.3zm-33.9-2.6v-.1zm33.7 2.6h-.1zM53 9zm-32.5 1.7zm23-6.3zm15 3.9h-.2.1zm19.5.4H78zM67.5 2h-.1zm-19.1 8.3h-.1zM12.6 4.9zm74.6 5.3H87zm-40.5-7zM83 7.9zM48 3.3v-.1zM25 4.5zm13.2 5.8H38zM28 6.4v.1zm-6.5.8zm2.3 0zm2.5 0V7h-.1zm12.3.6zm-6.3.3h.1zm13.8-.8zm-7.7 6.4zm-7.6-6.3zM93 11.1zm-1.7.1zM44.2 4.6zm17.5 3.1h.1zm-4 .2zm6.4-4zM45.8 8.2v.1zm9.6 3.6h-.1zm28.2-2.1zM26.3 1.8zm19 10.4zm12-11h-.1zm-5.9.2zM31.1 2.5zm40.3 6.8zm-29.7 2.9zM30.5 1.9zM29 12.5zm59.7-2.8zM23.9 12zm6.9-.3v.1zm-8.2 1.8zm29-12.2h.1zM21 3zm57.3 6.8h-.1zm-23.5 1.1zm1.3-10H56h.1zm30.6 8.8h-.1zm-36.5-7zM40 1zm-19.3 11h-.1v.1zm-7.4-7.2zm31.4 7.7zm34.9-2zm-66 1.8zm-.3 0zm56-10.4zm-5.4-.5zM92.4 8zm-53.9-.5zM75 11.6zm3.8-1.8zM52.4 7.7zm-25.7.4h.1zM3.1 13.8zM88.8 6h-.1zM31.6 7.8zm56.3 1.9zM43.6 7.3zM63.4 11h.1zm2-4.1zm-25.1 5.4h-.1zM64.5 7zm-9.3.4H55zm-18 .5zm44-2.2H81h.1zm-1.2 0v-.1zm8.2 5.2zm-59.5 1.8h.1zm-5.8-.7h.1zm-4.2.2v.1zm-13 .7zm21.6-2.2zm.7 0h.1zm7-.4h.1zm29.8-1.6zm-48.6 3.6zm32.6-2.5h-.1zM11 12.6v-.1zm29.3-2.4zM76.2 9zm-.5-.7h-.1.1zm-3.8.5zm-50.2 2.8v-.1zm31.7-1.8zm-36 2.2h.1zm-3.7.2zM73 8.8zm18.4-.9zm-33.7 2.6v-.1zm-23.7 3h-.2.2zM24 9.8v.1zm4.2.1zm40.7-2.2zm-17.2 1zm-19.5 4.9H32zm52.6-3h.1zm-49.5-1v.1zm-3.7 4zm48.8-6.3h-.1zM34.8 9.9zm49.7.7zM63.3 8.4zm-41.4 2.2zm26.2 0zM33.4 10zm25.4-1.4zM35.3 3.3h-.1zm33.2-1.8h-.1zm-16.3.8zm-14 2.5H38zm1 0v-.1zm2.6 0l.1-.1zm1.7-2.4zM94.7 11zM20.5 6v-.1h-.1zm52-2.8zm-27 10.4h.1zm12.7-9.5zM63 1.3h.1zM40.3 2.4zm21.4-1.2zm-4.6.2h.1zM41.6 2h-.1zm26 2.1zm-9.4-1.3zm-1.7 10.9h-.2.2zm-24-9.3zm-6.8 0h.1zm8.4.2zm-26.7.8zm70-3v-.1h-.1zM48.7 3.7zm20.5-1zM19.1 4.5zm50.5-2.8zM17.3 4.6zm75.5 6.7h.1zM14.1 4.5zm43.2-1h.1zM29.7 1.7zM35 7.1h.1zm9.8-.5zM28 1.8zm-5.2 5.4h-.1zm33.8 5.6zm-5.8-6.5zM34.5 7.4h-.1zm.2 0zm9.7-5.9a.5.5 0 0 0 .1 0h-.1zM21.6 1h.1zm8 0zm58.1 13.9h.1a8.6 8.6 0 0 0-.1 0zM24 13h-.1zm42.7-4.3zm-43.3 2.8v.1zm0-7zm71.3 7.3h-.2.2zm-32 1.6h-.2.1zM24.4 4.3zm22.7 8zM21.1 1.9zm55.3 6.7h-.2.2zM90 7.8h.1zm-43.8 2.4h-.1zM20 11.6zM68 9zm1.2 1.4v.1zM16.3 2H16h.1zm10 2.3h.1zm-9.6 9.4h.1zm12.7-2h-.1zM12 3.7h-.1.1zm36-2.2zm-1 9.3v.1h.1v-.1zM38.7 2h-.1zM22 12h.1zm27.2 0v.1zm10-10.4H59h.1zm-1.2 9h.1-.1zm-2.4.2h.1zm.4.9zM95 8.8h-.1zM60.5 1.5h-.2.2zM8.7 4.6h.1zm8-1.8h-.1.1zm-12 2a9.7 9.7 0 0 0-.2 0h.2zM48.5 1zm21.4 8.3zm-40 2.2h-.1zm51.9-1.3v.1zM72.6 9h-.1zm-40-7.5zM24 4zM8.5 5zM68 3v-.1zM35.5 4.7v-.1zm1.6 0c0-.1 0-.1-.1 0h.1zm17.6-1h-.1zM31.2 10h.1-.1zm38-2.2h-.1.2zM27.2 10zm5.5-4v-.1zm55.4 0a8.3 8.3 0 0 0-.1 0zM27.6 9.3h-.1.1zm-14 .8h.2-.1zm41.1-5.3zM41.6 8.3zm-5 5.2h-.1.1zM46.5 8zm-5.6 0v.1zm-30 1.6zm45.4 3h.1zM26.8 7h-.1.1zM43 6.4h.1zM30.4 7h-.1.1zm7.7.7zm50.4 3h.2-.2zM20.7 8.5h.1zm20.2 5h.2-.2zm7.8-6.7v-.1zM15.5 8.6h-.1zm10.8-.5zm-2.7 0h.2-.2zM34 4.6zm30 4v.1zM33 10.4H33zm26.4-1.6h.1zM34.7 4.5h-.1zM57.9 12h.1zM35.1 4.4zm26.7 4.4h.1zm-20.6.8H41zm-.8-5.4zm-1-.3zM95 11.2h-.1zM39 4.4zM67.1 3h.1zM31.8 6.5h-.2.2zm-19 3zm4-8h.1-.1zm5.7 5.4zM70 2a1 1 0 0 0 0-.1zM31 2V2h-.1zm-9.4.5zm5.4 9.8zm44.2-8.2zm-16.6 6.6h-.1zM35.2 2H35h.1zm-7 4.5zm18-1l.2-.1h-.1zM15.8 8.7v-.1zm6 2.4h.2-.1zm43.7-2.4h.2-.2zm15.1-3.1c0-.1 0-.1-.1 0h.1zm4 2.3h-.2.2zM34 1V.7H34zm-3.9 9.9c0-.1 0-.1-.1 0h.1zm-15.4 1c0-.1 0-.1-.1 0h.1zm12.8-7.3zm-5-2.6h-.1zm55.1 6.3h-.1.1zM42.4 6.6h.2-.2zm30.9 1.9a4.2 4.2 0 0 1-.1 0zM29.6 4.4v-.1zm7.5 5.3zm28.2-8v.1zm-14.4 8.5h-.1.1zm-15.2.8zM73.9 9zm-13.5-.6h-.1.1zm-.3 0zM29.6 9.9h-.1.1zm4-.2zM50.9 4h-.1.1zm17.4 3.6zm-48 2.5V10zm52.2-1zm-35.2 0h0zM26 5.8zm3 3.4zm-11 2.6H18h.1zm9.1-2.6zm-9.7-5.8h-.1zm-4 3.7a.1.1 0 0 0 0 .1zm40.3-5.9h-.1zM25.2 4.3H25zM15.5 7v.1h.1a12.2 12.2 0 0 1-.1 0zm28.6 4zm3-3h.2-.1zm5 2.6h.2-.2zm18-4s0 .1.1 0h-.1zm-56 6.1H14h.1zm40.2-2.1H54h.2zm31.6 0v-.1zm-49.8 3a.4.4 0 0 1 0-.1zM81 10.3h.1zm-24.3 1.3h.2-.2zm.4 1zm21.4-1h.2-.2zm-58.7 2h.1-.1zm74-2c.1.1.2.1.2 0h-.1zm-46 .4zm32.5-2.6H80h.2zm-55.5 1.1h.1zm13-.6zm26.2-1.2h0zm-8 1.8h-.1zm-6.6.3h0zm34-.5h.1-.1zm-45.3.3h-.1zm34.8-1.8v-.1zm-18.7 3h.1zm-13.8-1.2h.2-.2zm-18 1H22h.2zm29.6-1v-.1h-.1zm4.7-.8h-.2.2zm14.1-.4h-.1.1zm12.8-1l.2.1h-.2zM26 11.6zm-6.6-10v.1h.1zm-5.3 10.8zm34.9-2h0zm-11.3.6h0zm2.1-5.2h-.1.1zM10.6 7.3h-.1zm52.3 6.1h-.2.2zm-37-9h.1zm-4 0zm29.4-2h-.1zm-3.6 0h.1-.1zm18.3-1h-.2.2zm-5.1.1s0 .1.1 0H61zm6.6-.5h-.2.2zm-19 .8h.1-.1zm6.1-.4h.1zM39 2h.1zM58.3.7zM30 1.9h.1zm1.5 7.8zm-8.1.5V10v.1zM59.6 8zM72.4 7zM45 8.6h-.1.1zm1-.3h-.2.2zm46.6 2.2h.1zm-24.7-4c0 .1 0 .1.1 0h-.1zM37.6 7.8h-.1.1zm6.2-.4h.1c0-.1-.1-.1 0 0zM20 8.6h-.2.2zM46.6 7h.2-.2zm-22 1.2zm13.2-1.8h-.1.1zM79 10zm-41.6 2.5h-.1.1zM74.2 1.8H74zm-37 9.7v-.1zm20.2 2c.1.1.1.1.2 0h-.2zm34.2-3h-.2c0 .2.1 0 .2 0zM34 8h.1c0-.1-.1-.1-.2 0zm-8.1-1h-.1zm50.2 2.5H76h.2zm-40.6.5h.1-.1zm27.8-6h.1zM48.8 1.4h-.1zM20.2 7.2h-.1.1zm39.4 1.4h-.1.1zm-6.2-4.8h-.2.2zm24 4.9h-.2.1zM25.2 2.6h.1c0-.1 0 0-.1 0zm14 8v.1h.2-.2zm39-.7h.1zM18 9.3h-.2.2zm10.6-4.8h-.2.2zM53 1.7s0-.1-.1 0h.1zM23.5 7c0 .1 0 .1.2 0h-.2zm19 .4h-.1.2zm27 .3h.1zm-20.7 5.5zM32.6 4.5zm21.7-.7h-.2.2zm-2.7 4.7h-.1.1zm22.4.6H74h.1zm-6 .6zm-29-4v.1zm54 5.6h.2-.1zm.1.2h.1zM27.2 7.1c0 .1 0 .1.1 0h-.1zm-2.8-2.6h.2-.2zm69.3 6.7h-.1.1zm-54.2.4h.1-.1zM69 1.5h.1-.1zM70.7 5c0-.1 0-.1-.2 0h.2zM16.7 2zM46 9.7h-.1.1zm-10 3.8h-.2.1zm4.7-5.7h-.2.2zm.8 2.4c0 .1 0 .1.1 0a10 10 0 0 1-.1 0zm-15.4.9zm22.4-4.5l.1.1h-.1zM22 4.4h0zm55.6-2.2h-.1zm1.8-.1zm9.4 7.3l.2.1h-.2zm3 1.6zM21.5 9.3h.1zm11.7 2.5c0 .1 0 .1.1 0h-.1zm24.7 1h-.2.2zM34.3 9.2h-.1zm15.3-6.8h-.2.2zM20.2 4.6H20h.2zM50 9.4zM87.6 8h-.1.1zm-32 1.7h-.1.2zm7.2 2.4h.2-.2zM15 10.8zm28.7-7.5h.1-.1zm20.8-1.8c0 .1 0 .1.1 0h-.1zM27.7 4.2v.1h.1zM47 7.3h-.3.3zM67.4 4h-.2.2zm-22 9.4h-.2.2zM57 7h.1-.1zM75 9.1h.2-.2zm-11.5-.5h-.1.1zm-45.8 5c0 .1.1.1.2 0h-.2zm56-4.3c-.1-.1-.1-.1-.2 0h.2zm-45.4 3.3H28h.2zM15.9 12c0-.1 0-.1-.1 0h.1zm45.5-9.4h.1-.1zM53.2 10h.2-.2zm15.6-8.6h-.2.2zm-24.5 9.1l.1.1h-.1zm40.5-.1h0zm-35.2 0l.1-.1h-.1zm-4.9-8c-.1-.1-.1-.1-.2 0h.2zm-.7.2h-.2.2zm-4.7 7h-.1.1zm6.3 2.8h-.2.2zm-16.4-1h.2-.2zm33 2v-.1h-.1.2zm-46-4.9H16.4zm52.9.8h.1c0-.1 0 0-.1 0zm1.6 1.9h-.1.1zm21.7.4H92h.3zm-47 .7v-.1H45h.2zm.8-1.8H46h.2zm-35.6 3h-.2.2zm24.8-2s-.1 0 0 0zm2.9-7.4h.1-.1zm50.4 10.7h.1-.1zM74.2 9.3h0zM50.2 4h.1zm-31.9 3c0-.1 0-.2-.1-.1h.1zm.8-5.2h.1-.1zm32-.5h.1-.1zM20.9 2.7h.2s-.1-.1-.2 0zM51.6 4h.1-.1zM34.4 9.9h.2-.2zm8.8 2.4v.2s.1 0 0-.2zm-8.9-5.8c0-.1-.1-.1-.2 0h.2zM19.5 12h.1-.1zm24.4-1.3h-.2.2zm-4.2-6.2v-.1zm18.8 2.8h.2-.2zm-14.9-.4v-.1zm11-.2h.1zm-28 4.8zm20.7-9.1h.1-.1zM74.6 9a.2.2 0 0 0 0-.1h-.1zM69 4a10 10 0 0 0-.2 0v.1h.2zm-32.3 7.6h-.2.2zm54.4-.8H91h.2zM55 10.7h0zm9-9h.2-.3zM36.1 11H36h.2zm2.5-1.3h.2-.2zm-10-7.1zM36 9.9c0-.1 0 0-.2 0h.2zm1.9-9V.8v.1zm19.8 12.7h0zM18 2h-.2.2zm8.5 2.5h.3-.3zm37-2zm15.5 3s0-.1 0 0zM44.6 12s0 .1.1 0h-.1zm30-2.8h.2s0-.1-.1 0zm-19.3-7c0 .2 0 .2.1.1h-.1zm-19.1-.7c-.1-.1-.1-.1-.2 0h.2zm33.5 7.8h0zm-32.2-5h-.1.1zm41.8 5.3H79c0 .1.1.1.2 0zM56.4 2.4h0zM24.7 2h-.2.2zM47 7.7h-.2.2zM66.9 4h.2-.2zm21.8 4.5h.1v-.1h-.1v.1zm-77 4.8h.1zm25-5.5h-.2.2zM48.1 9s0 .1.2 0h-.2zM34.3.8c-.1 0-.1 0 0 0zm36.3 1.3h-.3.3zM14.4 12.3h.1-.1zm39.3-10c.1.2.1.2.2 0h-.2zm4.4 2.3h-.2.2zM35 11c-.1-.1-.1-.1-.2 0h.2zm-10.7.5h0zm28.3-9.2h0zm-18 6.8zm13.4.4H48h.1zM89 6h.1-.1zm7.4 5.2h.2c-.1-.1-.2 0-.2 0zm-11-1c0 .1 0 .1.2 0h-.2zM68.6 7.3h-.1.1zM37.3 1.8h-.2.2zm29 5.4s-.1-.1-.2 0h.1zm28.8 4h.2-.2zm-65-9zm2.3 7h-.2.2zM67 1.4h-.3.3zm-52.2 8h-.2.2zm63 0h-.2c0 .1 0 .1.1 0zm-67-4.3h-.1.2zM71 5h.1V5zM32.5 3.3s-.1-.1-.2 0h.2zm16 6.5h-.3.2zM25.6 8.1h.1-.1zm58.8 2.4c0-.1 0-.1-.1 0h.1zm-65.3 3.2h.2-.2zm17.7-2.3v.2-.2zm-8.3 1.8h-.2.2zM75.1 9c-.1-.1-.1-.1-.2 0h.2zM41.4 6.4h0zm7.3-4.7c-.1-.1-.1-.1-.2 0h.2zm35.2 1.1c0 .1.1 0 .2 0h-.2zM58.4 8h0zM39 6.4h.3-.3zm-11.7.5h-.2.2zM16 12H16v.1h.1zm26-9.6c.2.1.2.1.2 0h-.1zM92.7 9h.2c0-.1-.1-.1-.2 0zm-13.5 1.3H79c0 .1.1.1.2 0zm-27.9-4H51h.2zm-7.5 6h.3-.3zM46 2v-.1.1zm-19.6 5h-.2.2zm4.6 4.6h-.1.1zm-16 .8h-.2.1zm18.5-.7c0 .1.1 0 .2 0a6.5 6.5 0 0 1-.2 0zm26.9-7.7H60h.3zm18 5.8h.2-.2zm-51.1 2.8h0zm.5-6h-.2.2zm-8-2a.4.4 0 0 0-.3 0c0 .1.1.1.2 0zm68.5 6.2c-.1-.1-.1-.1-.2 0h.2zM74.2 8.5H74h.2zM14.1 7.1v0zM95.9 11h.2-.2zM44 4.7s.1-.1 0-.2v.2zM22.2 5.9h0zM42 9.2s0-.2-.1-.1h.1zM63.7.9h.2-.2zm-29 4.9h-.2.2zm-8 6.1c0 .1.1.1.2 0h-.2zm-4 0s-.1 0 0 .2V12zm16 1.6h-.5.4zm-16.4-9h-.2.2zm63.2 6h-.2.2zm-56.3-6H29h.2zm17.1-1.3c0 .1.1.1.2 0h-.2zm2.7 3v.1h.2-.2zm18.7 5c0 .1 0 .1.2 0h-.2zM25.3 9.8h-.2.2zm14.4-.1h-.2.2zM46.3.9V.7 1zM14.7 11.3h0zm17.6-1h0zM27 1.8h.2-.2zm47 5.3h.2-.2zm-57 .1c0 .1.1 0 .2 0H17zm-8.7 3.5h0zm14.5.8h.2-.2zM21 13.6a.4.4 0 0 0-.3 0h.3zM44 2.4a28 28 0 0 0-.3 0c.1.2.2 0 .2 0zm7.7 4.8c.1.1.1.1.2 0h-.2zM62 2.5h-.2.2zm-16.3 5h-.2.2zm-.9-2h.2c0-.1-.1 0-.2 0zm27.4 3.2c0 .1 0 .1.2 0h-.2zM13 7.4H13c0 .1 0 .1.1 0zM89 10.7s-.1-.1-.2 0h.2zM79 7.8h-.2c.1.1.2.1.2 0zM40 4h-.3.3zm-5.2 5.8h.1-.1zm20.4-7v-.1H55h.2zm-6.8 1.1h.2a.2.2 0 0 0-.2 0zm-13 3.6H35h.2zm2.5-3.2h-.1c0 .1 0 0 0 0zm20 0h-.2c0-.1.1 0 .2 0zm-21.3.3h-.2.2zm-7 .3h.2-.2zm20.8 1.5h.2-.2zm7.5 6.7h-.2.2zm-20.3-.6h.2-.2zM24 10.7h.2-.2zm11.5-6.2h-.2.2zm23.3-3c0-.1 0-.1-.2 0h.2zM39.4 11h0zm4.3.4h-.1s0 .1.1 0zm-13.3-.3h.2c0-.1 0-.1-.2 0zm5.7 1.5c-.1 0-.2-.1-.2 0h.2zm47.4-4c-.1-.1-.1-.1-.2 0h.2zM37.4 4.8l.2-.1h-.2zm22.9-.2H60c0 .1.1 0 .2 0zm-2 6.9c-.1-.1-.1-.1-.2 0h.2zm-9.9-10h.2s-.1-.1-.2 0zM73.3 9h.1c0-.1 0 0-.1 0zm-9-7.8H64.5zm-29 9.7h0zm12.4-3.7h.3-.3zm10.6-5.6h0zm-13-.2H45h.3zM95 11h.4-.4zM57.4 1.2h.2-.2zm-23.1.3c.2.1.2.1.2 0h-.2zM9.9 14.3c.1-.1.1-.1 0-.2v.2zm21-12.5h.2-.3zm-5.1 11.5h-.3.3zm-7.2-9.9h0zm12.6 4H31c0 .1 0 .1.2 0zM23 2h-.3.3zm5.8 2.3c0 .2 0 .2.1.1h-.1zm40 3.5h-.3.2zm5-.6h-.2.1zm-19.4.1c0 .1.1 0 .2 0a1.2 1.2 0 0 0-.2 0zm-24.8 0h.3-.3zm-16.3 0h.1s0-.1-.1 0zm41.1-.5h-.3.3zM96.5 11h-.2a.2.2 0 0 0 .2 0zM33.1 9.7h0zm25.3-1.2h.3-.3zm-37.9 1.7h0zM32 11.5h.2-.2zM27 10h-.1.1zm-16.8 2.4c.1.1.1.1.2 0h-.2zM22 9.2h.2-.2zm20.5-1.9h-.3.3zm-21.6 2h-.2.2zm53.5-.6H74h.2zm.3-.2h.3-.3zm0-.2h-.2.3zM39 13.5h.2-.2zm-7-1.6h.2-.2zm-5.5.7h.3-.3zm3.4-10.3v-.1h-.1.1zM50.1 10h.3-.3zm-2.4-9h.2c0-.1-.1-.1-.2 0zm.5 12.5h0zm-27.7-9h.2-.2zM86.4 8c0 .1.1 0 .2 0h-.2zM41 6.8h0zm-16 4.3H25h.3zM12.7 7.3s-.1-.1-.2 0h.2zm5.7 4.7H18h.3zm-5-1.1v-.1h-.1v.1h.1zM29 .8c.2.1.2.1.2 0H29zm62.7 10l.2.1h-.2zm-31-2.5h.3-.3zm-29.2 5.3h-.2.2zM21.3 12h.2-.2zM10.2 4.8H10h.2zM48 7.4h.3-.3zm-24-1.6c0 .1.1.1.2 0h-.2zm5.3 4.8h.2-.2zm23.3 0h.2-.2zm26.8-5.1h.2-.2zm-52-.7h.1a10.1 10.1 0 0 1 0-.1l-.2.1zm3.8 7.1a.3.3 0 0 0-.3 0h.3zM46 3.3h-.2.2zM56.2 10h-.3.3zm-19.3 2.3V12zM23.5 6.9h-.2.2zm23.4-4.5h0zm17.8 6h-.2.2zM63.9 7v-.1c-.1 0-.1 0 0 .1zm-10-3.1h-.3.4zm-32.8.6h.2-.2zm50.1 7c-.1-.2-.2-.2-.3-.1h.3zm-9.6-3.2h.3-.3zM9.2 4.5h-.3.3zm67.6 4.2c0-.1-.2-.1-.2 0h.2zM61.3 3.9h-.2.2zm-4.6 2.4h-.3.3zm30.8 1.4h-.3.3zM56.2 2.4H56h.2zm-38 7c0-.2-.1-.1-.2 0h.2zM77.5 2h-.3.2zm3.3 7.5h-.3.3zM59 1.2h.3-.3zm-29 6.6h.4-.3zm-6.7 2.9l-.2-.1c0 .1 0 .1.2 0zM72 9.8h.3-.2c0-.1 0 0 0 0zm-45 2.4h-.3s.1.1.2 0zM62.7 1.6h.4c-.1 0-.2-.1-.4 0zm17.8 8.8h-.3.3zM18.6 2h.3-.3zM27 12.6h-.2s.1.1.2 0zm11.1-2.9H38h.2zm8.4-.6h.3-.3zm8.3-5h-.2.2zM13 10h.2c0-.2 0-.2-.2 0zm58.3-.4h.3-.3zM63.1 12h-.2.2zM20.7 7.2h-.3.3zm35-2.8l-.2-.1h.1zm-31.4 8.9H24h.3zM8.8 10.7l.3-.1h-.3zm27-6.2h.4-.4zm35.3 5.2h-.3.3zm-52.5-.4h0zm48.6-1.6H67h.3zm8.4 6.5a.5.5 0 0 0 .3 0h-.3zm-18.4-8H57c0 .1.1.1.2 0zm39.2 5.3h-.2c0 .2 0 .2.2 0zM45.6 7.7h-.3.3zm26 3.1h-.1.2zM48.4 2.3h-.2s.2.1.2 0zm6.2-.7h-.2c.2.2.2.2.2 0zm8.8 7.8H63h.3zm28.2 1.4h-.3l.2.1h.1zM43.4 2.4H43h.3zM17.9 7h-.2V7h.2zm73.8 4.8h-.4.4zM12 7.3h.2l-.2-.1v.1zm8-4l.1.2c0-.1 0-.2-.1-.1zm30-.9h-.2.1zm-13.5 0h-.3c.1 0 .2.2.3 0zM66.1.8c.1 0 .2.1.2 0h-.2zm-22.6 9.9h-.3.3zm-33-5.9h-.2.3zm59.8-2h-.2.2zM30.6 4.5h.4c-.2 0-.3-.1-.4 0zm55.5 5.7h.4-.4zM71.6 1.6h-.3.3zM35.2 4h-.3.3zm30.2-2.6a.3.3 0 0 0 .3 0h-.3zm-53.8 9.2h-.4.4zM59.2 12c-.1-.2-.1-.2-.3-.1h.3zm-45.3-.8h-.1a.2.2 0 0 0-.1 0h.1zM90.8 9h-.3.3zm-63 1.6h-.1-.1v.1l.1-.1zM52 9.9h.3-.3zM30.3 11h-.2.2zm47 .5v0h.1-.2zm-34-4.8h.2c-.1-.1-.2 0-.2 0zm9-5.4h-.2.3zm-3.8 6.3a.3.3 0 0 0-.2 0h.2zM71 2.1h-.1-.2.3zm-55.3 8.7h-.3.3zm25.7-3.4h.3c-.2 0-.2-.2-.3 0zM74.6 9h-.2.2zM79 11h0zM37.8 4.8l.2-.1h-.2zM40 11s0-.1 0 0h-.3.3zm-3.8-4.6H36.5h-.3zm27.5 3h-.1-.1.2zm-22 4h.3-.4zm21-4.3h.3-.2zm19.8 1.2c0 .1.1.1.2 0h-.2zm-26.8 1.3h-.3.3zM48 4.1h.2-.2zM41.4.8h0zm5.9 8.8h.2-.2zM9 10.6h.3H9zm65.4-3.5h0zm-33.7 5v.1h0zM92.5 11c-.2-.2-.3-.2-.4-.1h.4zm-31.7 2.3h-.3.3zm-11-2.7h-.3.4zm-21.6-1v-.1zm10.4-8c0-.1 0-.2-.3 0h.3zM68 7.7h-.3.3zM9 5h-.2.3zm34 5h.3-.3zm-5-5.5h.1v-.1h-.2v.1zM17 2h.5-.5zm16.4-.2h.4-.4zm-11.6 8.3l.2.1V10h-.2zm-2.1.1h0zm6.7.4h-.1v.1l.1-.1zm16.5-9c-.2-.1-.3-.1-.4 0h.4zM26.6 4.3v-.2.2zM24 7h-.4.4zm33.6-4.2h.4c-.1-.1-.2 0-.4 0zM80 10.4h-.4.4zM13 7.3a.3.3 0 0 0-.3 0h.4zM53.7 9l-.1-.1h-.1V9h.2zm-3.3-4.4c-.2-.1-.2 0-.4 0h.4zm-4.1 6.3h-.3.3zm36.4-3.1h-.2c0 .1 0 .1.2 0zm-59.8 3.4c-.3-.1-.3-.1-.4 0h.4zm15.2-7v.1h.2l-.1-.1H38zm-13.7 6l-.1-.1H24c.2.2.2.1.3 0zm28.6-8.8h.4-.4zM26 13.2h.4-.4zm33-8.6h-.1.2zm-8.3-3.4h-.5.5zm-2.2 0h.2-.2zM90 8.6c-.1-.2-.1-.2-.3 0h.3zm-49.5 2c.1.2.3.2.4 0h-.3zM90 15h-.3.3zM41.6 4.2h-.1c.1.1.1.1.1 0zM27.4 5.8h.3-.3zm30.1-4.4l.4.1h-.4zM94 11h.3-.3zM74.8 8h-.3v.1l.3-.1zm-23 5.6a.5.5 0 0 0-.5 0h.4zM19 4.6h-.1v-.2l-.1.2h.2zm51.4 6h.4-.4zM68 1.6h-.4.4zm-45.4 10v-.1h.1v-.1h-.3l.2.2zm30.8-1.8a.4.4 0 0 0-.4 0 1 1 0 0 0 .4 0zM58 1.5h.4c-.2 0-.3-.1-.4 0zm4.8 9.4c.1 0 .3.1.4 0h-.4zm-24.8.5h0zm30.8-4.8h.3-.3zm-51.4 3.7h-.3.3zm30.3.6h-.3.3zm-25.5-.7h.3-.3zm10-5.9h-.3.3zM66 4h-.5.5zM39 6.4a.5.5 0 0 0-.4 0h.3zm50.8 5.2h-.3.3zm-49-.6h-.3.3zm3.3-4.2h-.3.3zM91.5 9H91h.4zM43 8.4v-.1h-.2.2zm24.2-5.8c0 .1.2.1.2 0h-.2zm10.5 9.2h.4c-.1 0-.3-.1-.4 0zM19.2 9.3h.3-.3zm30.7-7.9v.1a.4.4 0 0 1 .4 0h.1-.5zm-7.7 7.8h.2c-.2-.2-.2-.2-.2 0zm8.2 4.1h.5-.5zm12.1-6.5h.3-.3zm7 2.8a123 123 0 0 0-.3 0h.3zm-30.3.4H39h-.2c.1.1.2.1.2 0zm-5.9-6h.4c-.2 0-.3-.1-.4 0zm56 4.5H89h.3zm-70.9-5c0-.1-.1 0-.2 0l-.2-.1h.4zm48.2 3.7h-.3.3zM46.4 9.6h.3-.3zm22.2-.8a.5.5 0 0 0-.4 0h.4zm-50 4.5h.5-.5zM38.8 11h.3-.3zm-6.6-3.2h.3-.3zm.6 1.3h-.2v.1h.2zm14.7-5.3a.7.7 0 0 0 .4 0h-.4zm-29.6 6.4h.3c0 .1 0 0 0 0h-.3zm29.9-3.7h.4-.4zM27 2.6h.3l-.1-.1-.2.1zm11.4 4.7c0 .2.2 0 .3.1h-.3zm-6.9 2.3h.5a1 1 0 0 0-.5 0zm1.6-5.2c.2.1.3.1.4 0h-.4zm3 7a22.4 22.4 0 0 0-.2 0v.1h.2zm-.4-1.7h-.3.3zm-6.4-5.3c-.1-.2-.2-.2-.2 0h.2zm60 10.5H89h.3zM38.4 6.8h.5-.4zm.6-4.4c.2.2.3.2.4 0H39zm-23.5 9.7a.6.6 0 0 0-.3 0h.3zm31.3-1.5h-.4.4zm-3.6-3.8h-.4.4zm-6 .1v-.1H37l.1.1zM19.4 2h.6-.6zm55.8 7.4a.5.5 0 0 0 .4 0c-.1 0-.2-.1-.4 0zm-36.9 3l-.3.1h.3zm28.8-2.7H67h.3zM45 2.4l.2.1h.1v-.1h-.3zm32.3 4.9h.3-.3zm-21.3 6a.7.7 0 0 0 .3 0H56zm38-.8h.2c0-.1-.2-.1-.2 0zm.6 0c.1.1.1 0 .2 0-.2-.1-.2-.1-.2 0zM67.3 2h-.4.4zm-4.6 8.3H62.7zm10.8-1H73h.4zm19 1.4h-.2c0 .1 0 .1.2 0zM48 12.1h.3-.3zm-3.8-3.8s.1-.1 0-.2v.2zM50 .8h.3c-.1-.2-.2-.2-.3 0zM35 13.2h-.1a.9.9 0 0 0-.4 0h.4zm9.7-2.6h.6-.3-.2zM10.4 7.3h-.1-.2.3zm12.5 2.8l.2.1V10H23zm-4 0a.4.4 0 0 0-.3.1h.3zm30.4-6.3h.4-.4zM20 9.3h.3-.3zm-2.5 0h-.5.5zM45 7.8c-.1 0-.3-.1-.4 0h.4zm-14.5 4c0 .2.2.2.3.2v-.1h-.3zm12-4.4H42.7zm3 2.2l.1.2c.1 0 .1 0 0-.2zm-22.8 1h-.2-.2c.1 0 .3.2.4 0zm-1-8.7h.5-.4zM70 1.6h.5-.5zm13.8 5.9h.5-.5zM39.7 4.2h-.4c.2.1.3.1.4 0zm-20 9.1h.5-.5zm22.2-2.6h-.4.4zm11.8-.1h-.5.5zm-12.4 1.8H41h-.1v.1c.1-.2.3 0 .4-.1zm-35-7.7h-.7.7zm8.3 2.4h-.1a.3.3 0 0 0-.1 0v.1h.2zM29.3 4h-.6.6zM40 2.5a.5.5 0 0 0-.5 0h.5zm-.5 8.9h.4-.4zm48.9 3.5c-.2-.2-.3-.2-.4 0h.4zm-42.7-7V8h.4-.4zM30.3 4.4h-.2-.2.4zM50 3.8h.5-.5zm40.6 6.7c.1.1.2.2.4 0h-.4zm-74.4-.3c.1.2.3.1.4 0h-.4zm63.2-8c-.1-.1-.3-.2-.4 0h.4zM20.9 12l.2-.2h-.3l.2.2zM16 10.3h-.3.3zm-4.8-5.5a1.7 1.7 0 0 0-.5 0h.5zm26.3-.5a.5.5 0 0 0-.4 0h.4zm12.1 8c-.1 0-.3-.1-.4 0h.4zM36 12.2l.1-.1-.1-.1s-.1 0 0 0v.2zM16.8 4.7H17.1v-.2H17l-.2.2zm18-2.2h-.4H34.7zm34.6 4.1h.5-.5zM43.2 7l.2.1-.1-.1h-.1zm1.7.5a.5.5 0 0 0-.5 0 1 1 0 0 0 .5 0zm-35.6-3h.4a1.2 1.2 0 0 0-.4 0zm14-.5h.5-.4zm21.8 2.4l-.1-.1a1 1 0 0 1-.3 0c.1.1.2 0 .4 0zm3.7 3.5h.4-.4zm-21.5-5c0-.1 0-.2-.1-.1a.4.4 0 0 1-.3 0h.4zM27 10h.3-.3zm2.7-8.3h-.4c.2.1.3.1.4 0zm7.4 8l.1.2h.1l.2-.2h-.4zm16.5-2.5h.5-.5zm4.5-.6h.3a.4.4 0 0 0-.3 0zm5 .1h.4a.8.8 0 0 0-.2 0h-.1zm-14-2.7h-.7.6zM38 12.3l-.3-.1v.1h.3zm-1.3-5v.1h.6-.6zm8.6 2.9H46h-.6zm-15-1h-.2.2zM42 3.9h.5-.5zM81.6 10h-.3.3zM52.8 7.2h.5-.5zM87.3 6c.1.1.3 0 .4 0h-.4zM44 4v.1H44.4h-.3zm-1.8 6.6h.6-.6zm52.3 0l.2.1h.1v-.1h-.3zM12 12.8h.6a1.5 1.5 0 0 0-.6 0zm23.6-1.2l.2-.1h-.3l.1.1zm7-7.4a.7.7 0 0 0-.4 0h.4zM62 13.4a1.3 1.3 0 0 0-.6 0h.6zM7.7 5H7h.6zm37-.8h.1zm-3.5-1.8l.2.1h.2l-.4-.1zm-8 .1a1 1 0 0 0-.7 0h.7zm19.6 8v-.1h-.5.5zm-21-3h-.6.5zm49.8-.2h.5a.4.4 0 0 0-.5 0zm-69 6h-.3-.2.6zM18.5 7H18.8a.4.4 0 0 0-.2 0h-.1zM49 6.5h.8-.8zm-15.7 5.2v-.3h-.2l.2.3zm-5.6.2h-.2v.1h.2zM56 1.4h-.6a.6.6 0 0 0 .6 0zm-14 6h-.2c0 .1 0 .1-.2 0v.1h.3v-.2zm-26 4.5a.4.4 0 0 0 .4 0h-.2v-.2l-.2.2zm3-1.7H19.2zm-2.3-5.7h-.3-.3a.9.9 0 0 0 .6 0zM43.3 10h.4-.4zm-7.3.1h.5c-.2-.2-.3 0-.5 0zm47-2.7h.5-.5zm3.9 3.2h.4c-.1-.1-.3 0-.4 0zM70.7 9.3h.1l.3.1H71l-.3-.1zm-8.2-5.4h.5c-.2-.1-.3 0-.4 0h-.1zm-19.6.3h0zm-.6 6.3h.5-.5zm-3.6-6v-.3h-.2l.2.3zM11.1 7.3h-.5.5zM33 11.1h.5a.3.3 0 0 0-.1 0 .4.4 0 0 1-.4-.2v.2zm34.4-9.4a1.9 1.9 0 0 0-.5 0h.4zm-30.7.8H37.2h-.6zm3.1 7.5h-.2s-.1 0 0 0c.1.1.2.1.2 0zm25-1.3c-.2-.2-.2-.1-.3-.1h-.2-.2.6zM18.8 12h-.4v.2h.1c0-.2 0-.2.2-.2h.1zm-8-2.4h.4l-.1-.2-.2.2zm4.8 2.7c.2 0 .1-.1.2-.2h-.3l.1.2zm24.4-1.6h-.5.5zM27 7h-.5.5zM53.6 10h.7-.7zM23.1 6.8l-.4.1h.4zM21 2h-.6.6zm54.9 6.7h-.6.6zm-23.9 2.2l.6.1h-.6zm13.3-3.6h.3c0-.2 0-.1-.2-.1h-.1zm-29 4.2h.1s.2.1.2 0h.3-.6zm19.5-7.6H55h.8zm-14.6 0l.2.1a.7.7 0 0 1 .3 0h.2-.7zm8.5-2.4h-.3v.2H49c.2.1.4 0 .6-.2zm-36.2 11h.5-.5zm12.2-2.2h.3l.2-.1H26h-.4zM12.4 5a2.3 2.3 0 0 0-.6 0H12.4zm71.8 3.2l-.5-.1h.5zM34.8 3.9h-1 1zm16.6 2.9l-.2-.2H51v.1h.4zm-13-3a.2.2 0 0 0 0 .1h.5-.6zm11.6.3a.7.7 0 0 0-.4 0c0 .1 0 .1.4 0zM29.2 2.5c0 .1.2.2.3.1.1 0 .1 0 0-.1h-.3zM70.8 2h-.1l-.3-.1H70h-.2.5c.1 0 .3.2.5 0zm-39 9.2h-.3s-.2-.2-.3 0h.6zm30.3-2.8l.5.1h.1-.6zM35.8 2.5h-.2-.2-.2.6zm-2.5 1.8a.7.7 0 0 0-.4 0h-.1.5zM24.6 4h.4a.4.4 0 0 0 .3 0h-.6zm-5.4 8H19v.2l.2-.1zM2.3 14.8c-.2 0-.3 0-.4-.2v.2h.4zm73.3-7.5a.6.6 0 0 0-.5 0h.5zm-33.8 3.7h-.3l-.3.1h.6zm27.6-6.8c.2.2.4 0 .6 0a2.3 2.3 0 0 0-.6 0zm18.2 4.2h-.3-.2.5zm-38.5-1H49.7 49zM37.8 9.7h-.5.5zm-1.8 0s0 .1.2 0H36zM40 3.8h.8-.8zm2.7 7.6h.2v-.1h-.2l-.1.1v.1l.1-.1zm34.9 0v.1h.3c.1 0 .2.2.4 0h-.7zm-23.4.4c0 .2.2.2.3.2a30 30 0 0 1 0-.2h-.3zM37 10.5c.2.2.3.1.5 0h-.1a.7.7 0 0 0-.4 0zm9.6-4H46h-.1l.1.1a.8.8 0 0 1 .4 0h.2zM5 13h.5a1 1 0 0 0-.5 0zm77-2.5h.2l.3-.1H82zM48.9 7.3h-.7.7zm34 .1h-.3c0-.1-.1 0-.2 0 0 0-.1-.1-.2 0h.7zm-29.5-6c.1.1.2.1.2 0l.2.1h.3l-.7-.1zM32.3 2.5h-.4-.3.7zm-7.7 4.4h-.5.3s.2.1.2 0zm15.2-2.7v.1h.4V4l-.4.1zm8 6.7h1-.9zM33.5 2.4c0 .1 0 .2.2.2.1 0 .3-.1.4 0 0-.2-.2-.1-.3-.1h-.3zm-4.2 8.2h-.6H29.3zm1.6-8h-.6.6zm19.5 8.3H50h-.2c0-.1-.2 0-.2 0h.6zm-1.3.8h.9a12 12 0 0 0-.8 0zm10.2-2.3v.1H59.5c0-.2 0-.2-.2-.1h-.1zm-43.4 0h-.3-.2-.3.8zm57.4-1.2l.7.1h.1-.8zM48.8 9h.4a.4.4 0 0 0 .1 0c.1 0 .1 0 0 0h-.5zm-3.5 2c0-.1 0-.2-.1-.1h-.4v.1h.5zm12.9-6.4c0 .1.2 0 .4 0h-.4zm-11 3.1h1a6.6 6.6 0 0 0-.9 0zm-1 1.4H46h-.1c-.2-.1-.3 0-.4 0h.7zm34.3-1.9l1 .1h-1zM66.2 2H66h-.1l.1.2.3-.2zm-18.5 8h-.5-.1l.3.1c0-.2.2 0 .3-.1zM13.9 4.6c-.2 0-.3 0-.3.2h.3v-.2zm27-.4c.2 0 .2.2.2.3l.2-.3h-.4zM28.6 12H28l.3.1h.2zm12.3 1.2h-.6l.2.1s.2.1.4 0zM42.6 4H43.5h-1zM16 9.3s0 .1.2 0h.7H16zM46.3 11h.5a4.6 4.6 0 0 0-.4 0h-.1zm14.9-2.6l.8.1h-.6-.2zM45.5 5.8h.5v-.1h-.4-.1zm25.2 5h.6-.6zM51.5 6.7h.7-.6-.1zM72.9 5l.1.2h.4V5h-.5zm15.2 5.2l-.2.1c.1.2.3 0 .4.1h.1c-.2 0-.2 0-.3-.2zm-64-3h-.1.7-.7zM92 8.6h.6a19.2 19.2 0 0 0-.5 0H92zm-10.7 1.8h1.1-1.1zM26 7.2V7h-.8.6c0 .1.1 0 .2 0zm1.3 6h.4l.4.1c0-.1-.4-.1-.8 0zm21-8.6l-.1-.3v.2h-.1a.5.5 0 0 0-.3.1h.5zm-5 7.6l.2-.2h-.1l-.3.1v.1h.3zm-9.3-3v-.1h-.4l-.2.1h.6zm9.8.7l.1.1h.7l-.5-.1H44h-.1zm15.1-8.7H58h.9zM17.8 4.5v.1h.5a21.4 21.4 0 0 1-.2 0l.3-.1h-.6zm28.4 1.8H46a.9.9 0 0 1-.4 0h-.2l-.1.1h.7zM95 12.6h.6v-.2h-.3c-.1 0-.2 0-.3.2zM49.4 6.3h.8-.8zm-7 5l-.4.1.2.2.3-.2zm-15.3-.7h-.6.2l.2.1h.1v-.1zM78 8.2l.5.1-.2-.1H78zm-48.8 3.7c.1.1.1.1.2 0a.4.4 0 0 1 .3 0H30h-.7zm6.9-7.7v.1h.4l.1-.1h-.5zm11.8 2.6h.4v-.1a4 4 0 0 0-.4 0v.1zm11 1.5H59.9h-.6-.2zm-5.3 1.5s.1.2.2.1a.3.3 0 0 1 .3 0 .5.5 0 0 1 .4 0h-.9zM21.1 7l-.6-.1V7h.6zm19 2.7l-.2.1v.1l-.1.2h.1l.1-.1.2-.1v-.2zM36.6 11H37.4h-1zm6.1 1.5l.4-.1v-.2l-.1.1h-.5v.1h.2zM57.8 1.7h-.5l.2.1.3-.1zm4 7.4H62.4a.5.5 0 0 0 .3 0H61.8zm22.3 1l.1.1a1.7 1.7 0 0 1 .6 0h-.1l-.2-.2-.2.1H84zm-20.7 3.3a8.5 8.5 0 0 0 .7 0 .3.3 0 0 0-.2 0 .3.3 0 0 1-.3 0h-.2zM93.8 11l-.4-.1h-.3-.4c.1 0 .2.1.4 0h.5a.5.5 0 0 0 .2.1zm-68.6 2.3c-.3 0-.5-.1-.8 0h.8zm62.6-5v.1h.7l-.7-.1zM27 4.3l.1.1-.1.1h.3v-.2H27zm49 4.9h.6v.1h-.3a44.4 44.4 0 0 0-.3-.2zm-29.8 4.4h1a.4.4 0 0 0-.1 0H46.2zm-24.5 0h1.1a.3.3 0 0 0-.2 0h-.8-.1zm14-8.9v.1h1.1-.8c-.1 0-.3-.1-.4 0zm10.9-3.2h-1.1 1.1zm-8.2 9h-.8v.2-.1h.8zm-3.5-3.4h-.3-.3-.3 1zm-7.2 3.2c0-.2 0-.2.3-.1a.3.3 0 0 0 .3 0c-.1-.2-.3-.2-.7-.1l.1.2zm40.8-1c0-.1 0-.2-.2-.1a6.5 6.5 0 0 0-.3 0v.1h.5zM49 .9h.6V.7h-.5zm27.5 6.4h-.7c0 .1 0 0 .1 0h.3c0 .1 0 0 .1 0h.2zM47.9 9.7l-.1.2v.3h.2l-.2-.1.2-.1h.1l-.2-.3zm-27 .4v.1h.7-.5-.3zm15.7-2.7h-1 1zM21.3 7l.4.1H22.3v-.1h-1zM74 14.1c0-.1-.1 0-.2 0h-.6.8zm-1.7-2.8h-.8.2c.1 0 .2 0 .2.2h.1l.3-.2zm-27.8-5h-.6-.6l-.2.1h1.4zM24.8 7a.5.5 0 0 1 .4 0h.6-1zM14.2 9.5a.3.3 0 0 0-.2-.1h-.5l.3.1h.4zm66.9.5h-.5l-.1-.2c-.2 0-.1.1-.2.2h.8zM15 4.6c.1.2.3.1.5.1v-.2h-.5zm40.4 2.8h-1.4 1.4zm-41.2 3.5a.4.4 0 0 0-.3-.1.6.6 0 0 1-.1 0 .4.4 0 0 0-.4 0c.3 0 .5.1.8 0zM23 4h-1 1zm29-.2h-.2-.2-.2-.2-.2-.2-.2 1.4zm-15.3 9.4h.7-.7zm.5-1h.1c.1.1.2 0 .2 0-.2-.1-.4 0-.5-.2v.2h-.2c.2.1.3.1.4 0zm25.8-3a.4.4 0 0 1 .4 0h.3c-.1-.1-.1-.2-.3-.2h-.1l-.3.2zm1.2-.8a2.3 2.3 0 0 0-.8 0H64.3zm8.7 5.4h.8l-.4-.1h-.2-.2zM46.4 9.9l.2.1h.3c0-.2-.3-.1-.3-.2l-.3.1v.2l.1-.2zM31.7 7.1h-.8c.3.1.5.1.8 0zm7.5.3v.3c.1-.1.3-.2.3-.4H39l-.1.1h.3zm28.4 1.9l-.4-.2H67v.2h.7zm-52.5-.7h-.3a.8.8 0 0 1-.6 0 10 10 0 0 1-.1.1h1zM1.7 15.1l1.1-.1h-.3a.7.7 0 0 1-.2 0l-.6.1zM39 11.5l.3-.1a2 2 0 0 0-.6 0c0 .2 0 .2.2.2l.1-.1zM12.7 4.7h-1.2l.5.1h.4l.3-.1zm42.5 0c0-.2 0-.2-.2-.2v.1h.2c.1.1.2.1.2 0h.4c-.2 0-.4-.2-.5 0zM24 9.1H25l.2.1.1-.1h-.1a4 4 0 0 1-.9 0H24zm56-.8h.1v-.1H79.1l.9.1zm-13.4-.8h-1.5 1.5zm-1.9-6H65.3h-.5zm-9.4 5c.1.1.8.2 1 .1h-.7a.6.6 0 0 0-.2 0zm-43.8 6.2H11a.4.4 0 0 0 .2 0h.3l.2-.1c-.1-.2-.2 0-.4 0zm27-2.8h-.1-.2v.1h.4l.3-.1v-.2h-.2v.1l-.2.1zm8.3-2.3h-1-.1 1.1zm2-1.4c-.2-.1-.3 0-.4 0h-1 1.3zm-11 1.2l.2-.1a1 1 0 0 0-.5 0l.2.2h.3l-.2-.1zm29.3-.3c.4 0 .8.2 1.2.1a2.9 2.9 0 0 0-1.2 0zm-26.3 3.3H42a.6.6 0 0 0-.3 0h-.2a.6.6 0 0 0-.3 0 .6.6 0 0 1-.2 0h-.3zm12 .3v.1H53.8l.1-.1h-.5-.2-.2-.1zM69 7.3l1.1.1h.1H69zm23.7 5l-.7.1c.1 0 .3 0 .4.2h.1c0-.2.1-.2.2-.2zm1.3-1.6h-.2-.2-.5-.2.4a.4.4 0 0 1 .1 0h.4c.2.1.2 0 .2 0zm-45.8 1.6h.9a.5.5 0 0 0-.3 0 .6.6 0 0 1-.1 0h-.5l-.2.1h.2zm38.7-2h.8l-.1-.2-.3.1H87zm-48-7.8h-.5-.6s-.1-.1-.2 0H38.9zm55.7 9h-.1a53.8 53.8 0 0 0-.9 0h-.2.8a.7.7 0 0 1 .2 0s.2.1.2 0zM31.6 4h.3a.4.4 0 0 1 .3 0H32.9a.6.6 0 0 0 .3 0c-.4-.2-.9 0-1.3 0v-.1h-.1zm29.1 5v.2h1l-.1-.2H60.7zm32.1 3.4c.1.2.3.2.4.2h.2a.4.4 0 0 1 .1 0h.2l-.2-.1-.3-.1h-.4zM33.8 7h-1.1a1 1 0 0 0-.4 0H33.7zM35 4.2l.3.1c.2 0 .2 0 .3.2 0-.2.2-.1.2-.2-.1-.1-.7-.1-.8 0zm8.5-.3H45a6 6 0 0 0-1.4 0zM30.4 10H29.8h-.3-.3 1.2zm10.9-3.7h-.4a21.3 21.3 0 0 1-.6 0 2.7 2.7 0 0 0-.4 0h.2a.3.3 0 0 1 .1 0h1zM80.2 8l-.6-.1h-.5.1a6.2 6.2 0 0 0 .9.1zm-34.6-.8l-1 .1s0 .1 0 0h.5l.2.2v-.1h.6c-.1-.1-.2 0-.3-.2zm3-6.6h-.4l-.3.1v.1h.9l-.1-.2zM70.8 10v-.2h-.8-.1c-.2 0-.2 0-.1.1h1zm19.5-1.4l.5.1h.6c-.4 0-.7-.2-1.1-.1zM52.4 6.7h1.4a.7.7 0 0 0-.3 0H53h-.5-.1zm4.4 3l-.6-.1h-.7l.3.1h1zM80 7.2c-.2-.2-.4-.1-.6-.1h-.6a3.2 3.2 0 0 0-.6 0h.6a227.3 227.3 0 0 0 1.2 0zm-2.5 3.6v.2h.1l.1-.1h.8l-.5-.1h-.5zM6.8 4.6H7c.2 0 .3.1.4 0h1.1a.7.7 0 0 0-.2 0H6.8zm37.4 2.9h-.7l-.1-.2h-.2c0 .2-.1.2-.2.2h-.1 1.3zm1.5-5h1v-.1h-.3-.8v.1zm-7.3 4.3h-.9-.1l.2.1h.8zm8.8 5H49h-1.8zM31.7 4.3c0-.2-.1-.2-.2-.2h-.7a.7.7 0 0 1 0 .1l.3.1.2.1c.1 0 .2-.3.4-.1zm20.1 6.5c-.1 0-.3-.1-.4 0a1 1 0 0 1-.4 0h-.5 1.3zm.8 2.4h-.2H51.8h-.2-.3 1.3zm7.4 0h-.7a.3.3 0 0 0-.2 0h-.2-.3l.2.1H60zM45.2 9.2a.4.4 0 0 0-.3 0h-.4H44c0-.1 0 0-.1 0H45.2zm5.2 0H51l.2-.2a1.3 1.3 0 0 0-.6 0h-.5l.3.3V9zm-37.1 1.3h-1.5l.3.1h1.2zM20 7h-.2a3.5 3.5 0 0 1-.6 0 .4.4 0 0 0-.2 0h-.3V7H20.3l-.1-.1zm39.1-3c-.2-.1-2-.2-2.2-.1a23 23 0 0 0 2.2 0zm-22.6 9.3H35h1.4zm7-6.2c0 .1.2.2.3.1h.6l-.2-.2h-.5-.2zM42 12.2h-.2v.2l.1.1h.2l.1-.1V12l-.2.1zm-2.4-3a.7.7 0 0 0-.5-.1.3.3 0 0 1-.1 0h-.4-.1c0 .2.1 0 .2 0 .1.1.2.2.3.1a.4.4 0 0 1 .2 0H39.9c0-.2 0 0-.2 0zM29.4 3.8l.1.1H31.4h-2zm-8.8 9.4h.5a.4.4 0 0 1 .3 0h.7-.9a2.9 2.9 0 0 0-.6 0zm22-4.1h1.1a.2.2 0 0 0 0-.2h-.1c0 .1-.1 0-.2 0h-.1-.2c-.2 0-.3 0-.5.2zm-7.8 2.2h-.5a13 13 0 0 0-.7 0v.1h.7s0 .1 0 0h.5zm-5.4-4.3h-1.6 1.6zm66.5 3.5h-.8v.2h.8v-.2zM45.1 3.8V4H47.4a33.8 33.8 0 0 0-.3 0h-.7a42.2 42.2 0 0 0-1 0h-.3zM25.6 9.2h.2a.4.4 0 0 0 .3.1H27l-.1-.1a1 1 0 0 0-.5 0h-.7-.1zm42.7.3h-.5v.1l.4.1a.2.2 0 0 0 .2 0h.6l-.3-.1-.4-.1zM89 10.7h.1l.8.1H90.9 90h-.3c-.2-.2-.5-.1-.8-.1zM17.6 4h1.7-.2a1.2 1.2 0 0 0-.4 0H17.8h-.2zM41.3 10c-.2 0-.2 0-.3-.2v-.1.2h-.3a2 2 0 0 0-.3 0v.2h.8l.1-.1zm9.3-3.3H49h-.2 1.7zM34 13.2h-1.6l.4.1h.9l.3-.1zm-19-2.9h-.3-1l-.1.1.1.2c0-.2.2-.1.2-.1l.4-.1H15zm7.2 3l.2.1h.2s.2-.1.2 0h.8l.3-.1h-1.6zm12.7-9l.1-.1h-1.5v.1H35zM52.5 9h-.2l-.8-.1a.4.4 0 0 0-.1 0c-.1 0-.1 0 0 .2h1.1zm-11.8 1.6l-.2-.1h-.4-.1-1.5 2.2zm-16.4-.4h1.2l-.2-.1h-.2a1.5 1.5 0 0 1-.5 0l.2-.2h-.6l.2.1v.2zm-5.8 3.2a23.5 23.5 0 0 1 0-.1H16a.5.5 0 0 0-.1 0l.8.1v.1l.2-.1H18.5zm29.7 0h-1.5-1.1 2.6zM92 15h-.1l-.3-.1H90.2l1.6.2h.1zm-44.1-3.7h-1.5-.1c.1.1.3 0 .4 0v.2h.2v-.2l.6.1.4-.1zM22 4h-2.3l.2.1h1.8L22 4zm13.6 6h-1.1-.1-.4l.2.1h1.4zM38 4v-.1H38h-2.5.6c.1 0 .2.1.4 0 .1 0 .2.1.4 0h.3a.6.6 0 0 1 .3 0H38zm34.1 7h-.8l1.5.1s0-.1-.2 0h-.1c-.2 0-.2 0-.3-.2 0-.1-.2-.2-.4-.1a.1.1 0 0 0 0 .1H72.1zm-9.9 0a22 22 0 0 0-.1-.2c-.1.1-.2 0-.4 0h-.2c0 .1 0 0-.2 0a1.4 1.4 0 0 0-.2 0 1 1 0 0 0-.5 0v.1h1.6zm-30-1.8H31.3a4.7 4.7 0 0 0-.5 0 .5.5 0 0 0-.3 0H32.1zm4.7 0c0-.1 0-.1-.2 0H35.8a1 1 0 0 1-.5 0H35s-.1 0 0 0H36.8zm-9 3.2h.8l-.2-.1h-.4-.2l-.2-.1h-.6c.2.2.4.2.6.2 0 0 0 .1.2 0zm33.2-5.6a2 2 0 0 0-.3-.1 40.2 40.2 0 0 0-1.6 0h-.1.1l.7.1H61zM90.3 9a1 1 0 0 1-.5-.2h-.5-.7-.6a.8.8 0 0 0-.3 0h.1L89 9h1.2zM87 8.3l-.8-.1h-1-.4.1l1.3.1h.7zm-57.2 2.4h1c0-.1.1 0 .1 0h1a.5.5 0 0 0 .3-.1c0-.1-.2 0-.2 0-.3-.1-.6 0-.8 0H31 31h-.2-.1a1.4 1.4 0 0 1-.4 0h-.4c-.2 0-.2 0-.1.1zM36 7l-.5-.1H34.7a.8.8 0 0 1-.4 0 1 1 0 0 0-.3 0c.2.1.3.2.5.1a.5.5 0 0 1 .2 0h.2a.2.2 0 0 1 .2 0 .6.6 0 0 0 .2 0h.8zm25 2.5c0-.1 0 0-.1 0h-.2l-.5-.1h-.5v.2H61l.2-.1zM58 10.9h2.4-.4c-.3 0-.5-.1-.8 0H58zm-16.9.5l.2.2.2-.2c.2.2.2.2.4 0h-1.2l-.3.1h.4l.2.1.1-.2zm3.4 0c0 .3.3.1.4.2 0-.2 0-.2.1-.1H45.6l.3-.2h-1.6l.2.1zM42 9.7l.1.3h.6v-.2H43.3l-.2-.1H43a.6.6 0 0 1-.5 0v.2h-.2v-.2H42zm14 .7h-3H56zM1.3 13.9l.2.1H2.4l.5-.1H3c0-.2 0-.2-.2-.2h-.2-.5a.7.7 0 0 1-.3.2h-.5zm27.6-.7c.1.1.3 0 .4.2l.3-.1h2a1.3 1.3 0 0 1 .5 0v-.1h-2.6H28.9zm10.4 0h.8a22.3 22.3 0 0 0-.6 0h-.7a.2.2 0 0 1 0-.1.1.1 0 0 0-.2 0 .2.2 0 0 1-.1 0 17.6 17.6 0 0 1-.5 0 1 1 0 0 0-.4 0v.1h1.7zm-5.8-2.8h-.2l-.3.1h-.4-.2-.1v.1l.4.2h.4l-.2-.1h-.2H33.6s.1-.1.2 0h.1l.2-.1-.3-.1h-.3zm3.3.2c-.1-.1-.2-.2-.4 0l-.8-.1a.2.2 0 0 0-.2 0h-.1-.1-.2l-.2.1-.3-.1h-.3l.4.1c.2.1.2.1.4 0h.2v.1l.1-.1c.1.1.2.1.2 0a.3.3 0 0 1 .4 0c.1.1.2.1.2 0h.7zm4.4-3.2c-.1 0-.3-.1-.4 0h-.4l-.3-.1c0 .2 0 .2-.2.1h-.2v.1H40l.7.1h.3l-.2-.2h.4zm5.8 4.4h-3.7H45a.4.4 0 0 1 .3 0H47zm.5-4.8h2.8V7h-.2a.5.5 0 0 0-.1 0H49.4a1 1 0 0 1-.1 0h-1.7zM89 10.3h-.4c0 .2 0 .2.2.2H90c.2 0 .2 0 .1-.2 0 .1-.1 0-.2 0H90v.2h-.4l-.1-.2H89zm-11.9 1.3l-.2-.1h-1.4l.1.2h.6v-.1h.3l-.1.1h.5l.2-.1zm-31-1.7h-.2-.3l-.2-.1c0-.2 0-.2-.2-.2h-.4v.1h.3l.3.1h-.5l-.2.1.1.1H46V10zm41.5-1.1h-.4l-.4-.1H86l-.6-.1h-1.5H85l1 .1h.8l.4.1h.3zm-24.9 4.9l-.4-.1h-1.9a18 18 0 0 0-.7 0h-1.5-.2 4.7zM17.5 4H15.8h-.1-.3-.8c0 .2 0 .2.2.2h.6l.4-.1H17.5zM52.1 7h-.8L51 7l-.3-.1-.1.1-.1-.2V7c-.1 0 0 .1 0 .1h2.9c0-.1 0 0-.1 0l-.4-.1h-.6-.2zm4 6.7h-1.8-.2a1 1 0 0 0-.5 0 .2.2 0 0 1-.1 0H52 56zm-4.5-3h-.2l-.8-.1 1.6-.1h-1.4a1.3 1.3 0 0 1-.6 0 .4.4 0 0 0-.3 0h.5c0 .2 0 .2-.1.1l-.1.1h1.4zM47 12.2H47a22.3 22.3 0 0 1 0-.1V12h-.1c-.1 0-.2.2-.3.1l-.1.1-.1-.2h-.7l-.2.2h.5v.1h.8c.3 0 .3 0 .4-.2H47v.1zM53.5 7h3l-1.3-.1h-1.5l-.2.1zm2.8-.7h-5H56.3zm-43.4-2h1.2l.2-.1h-2.5l-.6.1h-.7l-.5.1h1.2a.4.4 0 0 1 .2 0h.8a.4.4 0 0 1 .4 0h.3zm61.3 3.8l-.1-.2h-1.7a1.5 1.5 0 0 1-.7-.1H70.5h.8l.7.1h.3l.6.1H74c0 .1 0 0 0 0zM32.7 9.9l-.1.1h-.5-.1.3v-.1l-.2-.1-.1-.1a.1.1 0 0 0-.1 0v.3h-.4-.5-.3l-.2.1H33a.3.3 0 0 1-.2-.1v-.2c-.2-.1-.3-.2-.4 0l.2.1h.1zm39.7 1.4l.1.2H73.5c0 .1 0 0 0 0h-.1H73.9h-.2l1 .1v-.1h.6s-.1-.1-.2 0l-.7-.1h-.5l-.6-.1H72.3zM43 10.5h5.7a.3.3 0 0 0 .2-.1H47.5h-.1H46.8a.5.5 0 0 1-.2 0h-.4-.6-.5H44.5h-1.4l-.2.1zm-35 3.9h1.6c.2-.1.2-.1.2-.3L9 14h-.6-.1v.2H8l-.2.2zM78 7h-.3l-1-.1h-.2l-1.3-.1h-1.5l-.5-.1h-1.5l-.6-.1h-.6 1.1l1.3.2h2.7l.5.1h.7l1.2.1zm-28.4.3h.4c0 .1 0 0 .1 0h3.7a1.9 1.9 0 0 0-.3 0H53a18 18 0 0 0-.3 0h-.3-.2v-.1H52h-1.4c0-.1-.1-.1-.2 0h-.5.2-.3l-.2.1zm7.8-1.1H59.2l1.5.1H65a.3.3 0 0 0-.1 0h-2.3l-1-.1h-4.1zM7 9h1.4l1-.1h.1l.9-.1a6.8 6.8 0 0 1 .7 0h1.1l.9-.1h.8l-.2-.1h-.2-2.7-.2L10 9H9a8.3 8.3 0 0 1-.1 0h-.4L7.4 9h-.3zm37 4h5.3V13h-5.1l-.3.1zm3.4-6.4h.2-.5-.1-.3a.2.2 0 0 0-.3 0h-.2a.2.2 0 0 0-.1 0h-1.9-.1v.1h.1l.2.1h.5-.4V7H46h-.6l-.2-.1a.2.2 0 0 1 .3 0h.8L46 7h.2l.3-.2h.4l.1.1H47l.5.1-.2-.1c.1 0 .3 0 .3-.2zM64 11H66.4l.3.1h1.7l.1.1h-.2l.3.1.1-.1H70.4a2.1 2.1 0 0 0-.6 0 .5.5 0 0 1-.3-.1h-.2a.4.4 0 0 1-.3 0h-1.5l-.3-.1H67h-.8a.6.6 0 0 1-.1 0H65.5a6.7 6.7 0 0 1-.5 0H65c-.1-.2-.3-.2-.4-.1a.7.7 0 0 1-.4 0H64zm19.5-3H81h-.2a8.2 8.2 0 0 0-.3 0h-.1H81.2l.1.2h-.1l.2.2h-.1-.4-.1.6l.2-.2h-.1a.6.6 0 0 1 .2 0h.7a.3.3 0 0 1-.4.2.3.3 0 0 0-.3.1h1.1-.2v-.3h.8V8zM30.8 6.9h-.2a.3.3 0 0 0-.2 0H29 29a.4.4 0 0 0-.3 0 .4.4 0 0 1-.3 0 .2.2 0 0 0-.1 0h-.7l.2.1h.5a.4.4 0 0 1 .2 0H30a.2.2 0 0 1 .2 0l.4.1.4-.1h2.5a.7.7 0 0 0 .2 0h.1l-.1-.1h-1.5a.4.4 0 0 0-.2 0s-.1.1-.2 0h-.2-.2H30.8zm15.7-2.6c-.1 0-.3.1-.4 0H46c-.1.2-.2.2-.2 0h-.5.2v.1h-.2c0 .2.2 0 .2.2h-.7v.2h.2v.1H46.7l-.2-.1h.6l.3-.1a84.8 84.8 0 0 0-.6 0h-.5-.3-.1l-.2-.1H46l.4-.1H47.4l-.2-.2-.4.1v-.2l-.3.1zM5 14.4h-.5a1 1 0 0 0-.4.2h2.3s.1-.1.1 0c.2 0 .4 0 .5-.2H7 6l.2-.2h-1a.5.5 0 0 1-.2 0l-.3.1zm55.5-7h-.7-.1l-.3-.1v.1h-.4a23.2 23.2 0 0 1-.4 0h-.1v-.1h-.7l-.2.1h-1.4-.1H57.8l1.4.1H64.9h-.3a21.8 21.8 0 0 1-.5 0c0-.2-.2-.2-.3-.2h-.5c0 .2 0 .2-.2.2h-.6-.1v-.2H62l.2.1h-.5.2-.3-.3a.1.1 0 0 0 0-.1H61v.1h-.2-.5.1zM55 9.6h-2.8a.5.5 0 0 1-.4-.2v-.1h-.1-.2-.1v.2h-.6-.2a.5.5 0 0 1-.1 0 72 72 0 0 1-1 0 1.5 1.5 0 0 0-.4.1l.1.2H50h-.3l.2.1h.5l.1.1h1.2l.4-.1-.4-.1h1.8l.5-.1h.5l.6-.1zM73 14H71.3l-1.3-.1h-.7l-.5-.1h-1l-.6-.1h-.5a1 1 0 0 1-.4 0l-2-.1a11.5 11.5 0 0 0-1 0H63h-.2.5l1.3.1 1.5.1h.9l1.1.1H69.8s.1.1.2 0l1 .1h1.3l.5.1h.3zM57.6 7h.1l.9.1H63a24.3 24.3 0 0 0 1.8 0h.2a7.8 7.8 0 0 0-.5 0H64h-.3c0-.1-.1-.1-.2 0a1.5 1.5 0 0 1-.2 0l-.8-.1h-.5-.2c0-.1 0-.2.2-.2H62.2h-.4a2.4 2.4 0 0 0-.3 0h-.1l.2.1h-1.1a1 1 0 0 0-.4 0h-2.8-.1c.1.2.2.2.3.1zm18.8 7.2h.2l.5.1h.8l.4.1a26 26 0 0 0 1.7 0 .5.5 0 0 1 .2.1h1l1.4.1h1l1 .1h1.7l1.2.1h.2s-.1-.1-.2 0l-.4-.1h-1l-.6-.1h-.2a1.5 1.5 0 0 1-.3 0h-.3-.3-.2l-.5-.1H82h-.6l-.3-.1a.8.8 0 0 1-.3 0h-.2-1.8c-.1 0-.3-.1-.4 0a.3.3 0 0 1-.1 0h-.4c-.2-.2-.3-.2-.5-.2h-1.1zM75.9 8h.7l-.6-.2H78l.6.1-.2-.1h-.6l-.6-.1H76.2l-1-.1h-1.8l-.5-.1H72 71l-.1-.1h-.4-.1.9l.9.2h.7a.8.8 0 0 1 .3 0v.2h1.1-.2 1c.1.2.3 0 .3.2h-.2l-.2.1h.6l.7.1a.4.4 0 0 0 .2 0s.1-.1.2 0h.8-.5a.2.2 0 0 1-.2-.1h-.5a.5.5 0 0 1-.3-.1zm-19.4 3.2H56h-.7c-.3 0-.6-.1-.8 0h-4a16.7 16.7 0 0 0-.6 0h-.4a1 1 0 0 1-.4 0H48.2 48c.1.2.2.2.3.2H48.8v.1c.2-.2.2-.2.4 0l.3-.2h.1c.1.2.2.2.4.2h.2v.2h3.5a3 3 0 0 0 .7 0h.6v-.1h-.8-.2a.3.3 0 0 0-.2 0h-2.7-.1-.5-.2l.2-.1h2.8l.4-.1h.4a.8.8 0 0 0 .4 0 .8.8 0 0 1 .3-.1h1.7zm-43 1.6h.4v-.2h.5l.1.1h1.3-.3l-1.6.2h-2-.8l-.3.1a2.2 2.2 0 0 1-.2 0h-.8l-.7.1H9l.6-.1h.7l.6-.1h-.4l.2-.2H10c0-.2 0-.2-.2-.2h-.1-.1v-.1l-1.7.1.2.2H8v.2a37.5 37.5 0 0 1-.8 0h-.7v.1l-.1.2H7.2l1-.1a.2.2 0 0 1 .3 0c-.3.1-.7 0-1 .2h.7H6a40.5 40.5 0 0 1 .3 0h1.1a.4.4 0 0 0-.2 0H5.6h-.3.3l.6-.1V13H4.4v.4h-.2.1v-.1H4v.1H4l-.1.1h.5l-.4.1.1.1H6.2a.9.9 0 0 1 .5-.1H8.4l.2.1h.5l.6-.1h-.5.1a.4.4 0 0 0 .3-.1.2.2 0 0 1 .1 0l.4-.1 1-.1a24.8 24.8 0 0 1 .6-.2h-.2-.3l-.4-.1h1.6l.6-.1h1.1a.8.8 0 0 0 .2 0h.3l.4-.1a2.5 2.5 0 0 1-.4 0c-.1 0-.2 0-.3.2h-.1-1.3l-.1.2h1.8s.1-.1.2 0c.1 0 .2 0 .3-.2H20.6a.9.9 0 0 1 .4 0 .3.3 0 0 0 .2 0H22.2a.3.3 0 0 1 .2 0l.5-.1H24.1a.7.7 0 0 0 .2 0h.2c.2 0 .3.2.4 0h8.4l.2-.1H35l.3.1a.2.2 0 0 0 .2 0c0-.1.1-.2.3 0H36a9 9 0 0 1 .1-.2c0 .1.2.2.3.1h2l.4-.1.5.1a.3.3 0 0 1 .2 0c.1.2.3.1.4 0 .1-.1.1-.1.2 0l.2-.1.1.1h.2v-.1h.3c0 .2.1.2.2.2l-.1.1v.1H44c0-.2-.2-.1-.3-.1H41.3c0-.2.1-.2.3-.2H42.9l.1-.2h.1v.2h.9c.1 0 .2 0 .2-.2h.3v.1h.4l.1-.1v.2H47l.1-.1.3.1.4-.1h.4c.1.2.3 0 .4 0H51.1l.1.1-1.4.1h1.8l.8.1h.3v.3h3c-.1-.2-.1-.2-.3-.1a.2.2 0 0 1-.2 0 .3.3 0 0 0-.2 0h-.3c0-.1 0-.1-.1 0h-.2a.3.3 0 0 0-.2 0h-.5c-.1-.1-.3 0-.4 0H53c0-.1-.1-.1-.2 0V13h1a23 23 0 0 1 .8 0h1.6V13a.7.7 0 0 0-.3 0c-.1 0-.2 0-.3-.2h.8l-.7-.1.5-.1-.1-.1h-.4v-.1-.1h.6L56 12h-.5a.1.1 0 0 0-.1 0h-.4-1.1-.3a.1.1 0 0 1 0-.1v-.1h-.7l-.2.1h-.3c0-.1 0-.1-.2 0h-.3l-.3.2a1.9 1.9 0 0 1-.4 0l-.5-.1c0-.2-.1-.2-.2-.2v.2l-.2.2H52s.1.1.2 0l.2.1H52a3.6 3.6 0 0 0-.6.1h-.8-.6c.1.1.2 0 .3.2a1.4 1.4 0 0 1-.4 0v-.1h-.3a20.6 20.6 0 0 0-.6 0h-2.1-.3v-.2h-.3-.2a.4.4 0 0 1-.3 0c0 .2-.1.2-.2.2h-2.2v.2h-.2v-.2H43v-.1l-.3.1H40l-.4-.1h.6a6 6 0 0 0-.3-.2v-.1h-.1l-.1.1H39h.3v-.1c.1 0 .1.1.2 0a.4.4 0 0 0-.4-.1H39c-.1.1-.2.2-.3.1a.7.7 0 0 0-.5 0l.6.1s-.1.1 0 .2h.2l-.1.2a4.5 4.5 0 0 1-.4 0h-.7a.4.4 0 0 1-.1 0h-2.8.3l.2-.1h.3l-.4-.1h.5c.2 0 .2 0 .2-.2h.8V12h.4l.2-.1H43v-.1H41.4h-.1H36.4h-.1l.1.1.1.1v.1h-.2l-.2.1h-.2-.2l-.2-.2c.3 0 .5 0 .6-.2a.6.6 0 0 0-.3 0h-.2-1.3-.1-.6-.2c.2.1.3.2.5.1H35.2a.5.5 0 0 1 .3 0c0 .2-.2.2-.3.3h-.6v.1h.4a.6.6 0 0 1-.3 0l-.4.1v-.2h.2l-.1-.1H34a.2.2 0 0 0-.1 0h-.4a.3.3 0 0 0-.2 0 .3.3 0 0 1-.4.1.5.5 0 0 0-.5 0h-.4c-.1-.1-.2-.1-.2 0h-.2-.1H30.3l-.3.1.3.1-.3.1c0 .1-.2 0-.2 0h-.2v-.1h.3l-.1-.2V12h-.2v.1h-.4a.3.3 0 0 1-.1 0h-.3v.1h.6l-.1.3H29h.7a.3.3 0 0 0 .1 0l.2.1h-4.4-.2l.1-.1-.1-.2h.6l.3-.1.2.2v-.2-.1h-1.2H24h-.2c-.2 0-.4.2-.6 0H23l-.3.1a11.2 11.2 0 0 1-.5 0c0-.2-.2-.2-.3-.2v.1h-.3c0 .2-.2.1-.3.1a.4.4 0 0 1-.3-.1l-.5.1h-.8-1.2l-.2-.1h-.1-.1l.2.1c-.1.1-.3 0-.4 0V12h-.1v.2h-.3c0-.2-.1-.2-.2-.1h-.5l-.3-.1v.1l.1.2a.5.5 0 0 1-.4 0c-.1.1-.3 0-.4 0h-.2v-.2h-.2v.2H15h-.3a.5.5 0 0 1-.2.1 2.6 2.6 0 0 0-.6 0c-.2 0-.3.1-.4.3zM62 10.7H65.8l1.1.1 1.2.1H69.5l1.4.1h-.1a7.4 7.4 0 0 0-.3 0h-.1v-.2h.2l-.4-.2v-.1H70h.2c0 .2-.2.2-.2.1a.5.5 0 0 0-.2 0H69l.3-.1-.4-.1h-.5-.2l-1-.1s-.1 0 0-.1H69a.2.2 0 0 1 .1 0h.6a.2.2 0 0 1 .1.1h1.5l.2.1h1.2l.1.2h-1.4-.1 1l1.2.1-.1.1v.1H73l-.1.2h.5l.9.1h1.3l.8.1h.9l.9.1h.5-.3l-.3-.1H77l-.1-.1h.4l.1-.2-.2-.3h.9a.4.4 0 0 1 .3 0c0 .1.1.1.2 0a.2.2 0 0 1 .2.1H79l.2.1v.2h-.5c0 .2 0 0 .1.1l.3.1c-.1 0-.3 0-.3.2h2.7l.3.1h1.5l.2.1H85l1.5.2h2l.7.1H90.5l.3.1h1.4l.4.1H94.3a5.6 5.6 0 0 1 0-.1V12h.2l-.3-.1h.2v-.1h-.3l-.1.1h-.8-.2c0-.2.2 0 .3-.2h-.7l.1.1a.8.8 0 0 0-.5.1H92l-.4-.1h-.5v-.2h-1l-.3.1H89.2l.1-.2h-.5-.2l.3-.1h.3c0-.1.1-.1.2 0H91a.8.8 0 0 1 .4.1H92.2a.6.6 0 0 0 .3 0h.5a.4.4 0 0 0-.1 0l-.5-.1H91.2c-.1 0-.2 0-.3-.2h-.4.3c-.3.1-.5 0-.8 0 0-.1.2 0 .4 0H90l-.3-.1h-.5l.6.1a.2.2 0 0 1-.2 0h-.3-.1V11H88l-1-.1h-.7l-1.2-.1h-1.3l-1.3-.2h-1.9a5 5 0 0 0-.4 0H80l-.8-.1H79l.4.1a.7.7 0 0 1-.6 0v-.1H78v-.1l.1-.1a.8.8 0 0 0-.4 0h-.1c0-.1-.1 0-.2 0l-.6-.1h-.3a.6.6 0 0 1 .3-.1h1.7a1 1 0 0 1-.4-.1h-.4c.1 0 .3 0 .3-.3l-.6-.1h-1.8c-.1-.2-.3-.1-.4 0l-.2-.1h-.6c-.3 0-.6-.1-.8 0a.1.1 0 0 1-.1 0l-.5-.1h-.3-.2-.2l-.1.1h.3v.3h.5v.1h-.2v.2H72l-1.5-.1h-1c-.4-.1-.8 0-1.1-.2h-1.7-.3-.7l-1-.1h-.3l.4-.2v-.1H64v-.2H65.8v.2H64.9v.1l.4.1c.2 0 .3-.1.4 0h.3l.1-.2c0 .2 0 .2.2.1H66c0-.2-.1-.1-.2-.1 0-.2.2-.1.3-.2L66 9h-.5-.3L65 9h-.7-.2-.2-.1l.1.2a2.6 2.6 0 0 0 0 .1v.2l.2.1h-1.8-.1v-.2H62l.2.2h-2.9l-.2-.1h.2v-.1H59a.4.4 0 0 1 0-.2h.7V9h.8V9H60h-.3s-.1.1-.1 0h-.3c-.2.1-.2.1-.4 0l-.2.1v-.1H58.1L58 9h.2l.3.1v.2h-.7l.8.2.1.1h-.7l-.1.1h.8l.7.1H58h-.2-.2v.1h1l.3.1H59.8l-.2.1h-1 .2l.5.1h2.9-1.1V10h1.4a.6.6 0 0 1 .2 0h.5c.2 0 .2 0 .1.2h.3s.1-.1.2 0h.3v-.1H65l-.1.1h-.3-.3 1l.6.1-.4-.1h.8c0-.1.1 0 .1 0h-.2v.1h.5l.2.1H68.2v.1H68s0 .1 0 0l-.2.1h-1.5l-.2-.1H66h-1.1l-.5-.1h-2.1-.2-.2-3a2.6 2.6 0 0 1-.2 0 3 3 0 0 1-.2 0H58 58l.4.1c0 .2 0 .1.2.2h2.7c0-.2 0-.2.2-.1h.6zM91 12.4v.1H91.9v-.1l-.5-.1h-.4-.2-.1-.2H89.5h-.2c-.2-.2-.4-.2-.6-.2a2 2 0 0 0-.6 0h-.4a.6.6 0 0 1-.2 0h-.3-.2-.2L86 12h-1l-.5-.1a2.8 2.8 0 0 0-.7 0l-.7-.1a.8.8 0 0 0-.5 0H82l-.3.1v-.1h-.5l-.6-.1a5.3 5.3 0 0 0-.5 0H79h-.2.5l-.2.2.4-.1.1.1H81l.6.1h1l1 .1h.4c.1-.1.1-.1.2 0h.2c0-.1.1 0 .2 0H86v.1h2l.2.1h.8l.5.1h.5a.5.5 0 0 1 .5 0c0 .1.2.1.2 0h.2zm-51-5.5h.2c-.2-.1-.3-.2-.4-.1H39.1c-.2 0-.2 0-.1.2h-1.2-1-.2c.1-.2.2 0 .3 0v-.2a.4.4 0 0 0-.3 0c-.2 0-.2 0 0 .2h-1.4l.2.1H42.8l-.1-.3H41.8h-.3a.4.4 0 0 1 .3 0h.8c0 .2 0 .2-.2.2a9.6 9.6 0 0 1-1.3 0l-.1-.1-.1-.1h-.4a.6.6 0 0 1-.3 0H40h.6a.3.3 0 0 1 .1 0V7c0 .1 0 0 0 0H40c0 .1-.1 0-.1 0zm40 3h-.2l.2-.1h-.4l-.2.1h-.1c0 .2 0 .2-.2.2h-.2c.2.2.4.1.6 0 0 .2.2.2.3.2H81.4l-.4-.1h-.5-.2-.2l-.5-.1V10h.2a.2.2 0 0 0 .3 0l.1-.2a32.6 32.6 0 0 1-.2 0l-.1.1zm-36.7 1l.7.1h-.3a.3.3 0 0 1-.2 0 .3.3 0 0 0-.2 0c0-.2-.2 0-.3-.1h-.2H42.1v.1h1.1zM27.4 4h.8-.6a.3.3 0 0 0-.2 0H26h1.3zm55.4 6h.1-.5c.2.1.3 0 .4 0zm-46 0h-.2a.3.3 0 0 0 .3 0c0 .2.2.1.3.1V10H37h-.1zm29.5-6H66 66.7h-.4zm-8 8v.1c-.3.2-.5.2-.8.1 0 .2.2.2.3.2h1.1l.3.1h-1.9v.1h.7a.3.3 0 0 0 .2 0h.3c-.1.2-.3 0-.5.2h1v.2h-.7v.1h4.8l1 .1h.2v.2a1 1 0 0 0 .3 0h.3l.3.1h2.2l.6.1h1.7c0 .1.1 0 .2 0v-.2H71.1v.3c-.2-.2-.2-.2-.3-.1a.4.4 0 0 1-.3 0 .6.6 0 0 0-.5 0l.1.1a55.5 55.5 0 0 0 2.9.1h-.2c0-.2 0-.2-.2 0l-.2-.2-.2.1H72h-.2a1.9 1.9 0 0 0-.5-.1v-.1h3.3v-.1h.2c0 .2.2.3.4.2a.3.3 0 0 1 .2 0h.8l.5.1h.5l.1.1h-.7l.1.1c-.1.1-.3 0-.4 0l-.2-.1H74.9h-.7v.1h.7l1.4.1h.8l.6.1h1.7l1 .1h1.1l1.5.1 1.8.1h1.3l1.3.2H90l1 .1h1l1.5.2h.5-1.4-.2l-.3.1h.3l1 .1h1.1l-.1.1h-.6-1.3a24.9 24.9 0 0 1-1 0H89.3l-.5-.1h-.2L88 15h-1.3l-1.3-.1-1.8-.1-1.8-.1h-2.3l-1.8-.2-2.2-.1-1.8-.1h-1.6l-1.7-.1-1.3-.1H68l-1.6-.1h-1l-.8-.1H61h-2.2H56.3l-1-.1H51.1 49a5.8 5.8 0 0 1-.8 0 .3.3 0 0 0-.1 0h-.7a5.3 5.3 0 0 0-.7 0l-1.3.2h-2.9a1.5 1.5 0 0 1-.2 0h-2.7-.3H30.4l-1.5.1h-1.5H24.4h-.2-6.1l-1.2.1H15l-1.4.1h-1l-.3.1h-.7l-.7.1H9a15.8 15.8 0 0 0-1.3.2h-.7H7 5.8l-1 .1h-1l-.2.2H3.4h.1-.6c.2.1.3 0 .4 0l-.4.2h-.8c-.5 0-1 .1-1.6 0H.3L.2 15V15v-.3c.1 0 0-.1 0-.2l.2-.5-.1-.3h.1v-.2-.3c-.2-.1-.1-.2-.1-.4v-.3c-.2 0-.1-.1 0-.2v-.2-.3c.1 0 .1-.2 0-.2v-.2a.4.4 0 0 0 0-.2V11v-.3-.2-.1l.1-.2H.3v-.4l-.2-.1h.2v-.3-.3a15.8 15.8 0 0 0 0-.2v-.2s0-.2.2-.2H.3v-.3-.1c.1-.1.1-.2 0-.2a.4.4 0 0 1 0-.4l-.1-.3v-.4-.2s-.1 0 0 0v-.3V6c-.1 0 0-.1 0-.2h.1L0 5.7l.1-.1v-.3L.5 5c-.2-.2-.2-.4-.2-.7v-.1-.3c-.1-.1-.1-.1 0-.2l.1-.1.1-.4c-.2 0-.2 0 0-.2 0-.2-.1-.2-.2-.3v-.3C0 2.1 0 2.1.1 2L0 1.6v-.1c.2 0 .2-.1.3-.2a.2.2 0 0 1 .1 0h1.1c.8-.2 1.5-.2 2.3-.2h.7L5.8 1H7l.7-.1h.9L9 .8h.5l.7-.1h1.1s.1-.1.1 0h.6l.6-.1h.4l1.5-.1H17l.9-.1H22.9l.6-.1h17.9l.5-.1H50.6c.3-.1.5 0 .8 0h4.5a83.9 83.9 0 0 1 2 0h7l.4.1H68l.9.1 1.1.1h1.1l1.1.1h1l1.9.2h2.3l.7.1 1.2.1 1.3.1H82l.5.1H84l1.1.2h2l.7.1h1.3l.4.1h.5l.7.1H92l.4.1h1l.9.1h.8c.3.1.6 0 .8 0h3.1l.1.2a.2.2 0 0 1 .2 0 .2.2 0 0 0 .2 0l.2.2.1.2-.1.4h-.1v.3l-.1.2v.2h-.2V4l-.1.2v.2l-.1.3V5L99 5v.3l-.2.3h-.1-.2.2V6h-.1l.1.2v.1c-.1 0-.2.1-.1.2V7l-.2.1v.4l-.2.2h.2l-.2.3-.1.1c-.2 0-.2 0-.1.2v.2h-.1l-.2.5v.2s0 .1-.2 0v.5a.1.1 0 0 1 0 .1v.2h-.2-.1c.3.1.3.1.2.3a.6.6 0 0 0 0 .2c0 .1 0 .2-.2.2h-.4a.4.4 0 0 1-.3 0h-.3l-.1.2h.7l-.2.3a.5.5 0 0 0 .2 0 .2.2 0 0 1 .1 0s.1 0 0 .1v.2l-.2.3-.2.2h-.2v-.1c-.2 0-.3-.1-.4 0h-.3c.1-.2.1-.2.3 0v-.2h-.3c-.2 0-.4 0-.5-.2l-.3.1.2.1.2.1.1.2a.9.9 0 0 1-.6 0V12.2h-.2 2.1v.1c-.2.1-.2.2-.2.3a.3.3 0 0 1 0 .2v.2a.5.5 0 0 0-.1.4v.1c-.2 0-.2.2-.3.2v-.2l-.3.3-.2.2h-.1l.4-.4-.2-.1.2-.1-.2-.2h-1.1L93 13h-2L90 13h-.7l-1.3-.2h-1.3l-.4-.1-.1-.1a.1.1 0 0 1 .1 0H87a7.6 7.6 0 0 0 .4 0h.2l.3.1h1.2l.9.1h1.1l1 .1h3.6v-.1H92l-.9-.1h-.7l-.6-.1H88.6a.7.7 0 0 1-.4-.1.6.6 0 0 0-.3 0 .9.9 0 0 1-.4 0H87c-.3-.2-.6 0-.8-.1a.2.2 0 0 0-.1 0h-1.7l-1-.2H81.6a101.3 101.3 0 0 0-1.3-.1h-.7l-1.3-.1h-.4l.1.1h-.2V12h-.4l-.7-.1h-.3H75.8l-.2.1.2-.1h-.2-.3l-.9-.1-1.7-.1h-1l-1.4-.1h-.7l-1.2-.2h-2.3l-1.4-.1h-3.6H58.8l-.3-.1h-1.2-.2.3l.7.1h.3l.1.1h.1l.5.1h1.5l.3-.1v.1h.5l.1-.1c0 .1.2.1.4 0h-.2.6-.2.8c0 .2.1.1.2.1h.3c0 .2-.2.1-.3.1a14.2 14.2 0 0 1-.7 0h-2.5H58l-.8.1h5.5l.3.1h2.6l.5.1h1.2l1.5.1h1l1.4.1 1.4.1h1.9l1 .1h.9l1 .2H78.8l.4.1H76.5l-1.4-.1h-.6l-1-.1H72h-.2l-.7-.1h-.3l-1-.1h-1l-1.2-.1h-1.8l-.7-.1a.4.4 0 0 0-.1 0c-.1 0-.2 0-.1.2h-.1-.1l.2.1a.2.2 0 0 1-.3 0V12h.1c0-.1 0-.2-.1-.1a.5.5 0 0 1-.3 0h-.1.1c0 .3 0 .3-.2.2h-.3l.2-.1a1 1 0 0 0-.7-.2.2.2 0 0 0 0 .1l-.1.2-.1.1c.2 0 .4 0 .6.2h-1c0-.2.1-.1.3-.2h-.4c0-.1 0-.2-.2-.1V12h.3V12H61v.1c.1 0 .2 0 .2.2h.2-.5-.1-.2v-.3a13 13 0 0 0-.6 0c-.2 0-.2 0-.2.2l-.1-.1-.2-.1c0 .2-.2.2-.3.2l-.2.1h-.4c-.1 0-.2 0-.2-.2l.2.1c.1 0 .1-.1 0-.1h-.2z" fill="#38B1DA" mask="url(#b)"/></g><path d="M67.8 47.7H69l1.2.1h1.2l1 .1h1l1.5.1h.8l1 .1h1.2l.8.1h.7l1.1.1h1.3l.6.1h.1l-.2.1H79.8l-1.3-.1-1-.1h-1.3l-1.5-.2H72l-.6-.1-1.6-.1h-1.1l-.6-.1h-.2m28 2.1l.2.1-.4.3.2.2-.1.4v.2c.1 0 .1.1 0 .2a7 7 0 0 1-.4.2h-.2l-.2-.2c-.2-.2-.2-.2 0-.4l.5-.6.1-.2.3-.2m-13.3-1.5h2.2l.3.1h.4a.4.4 0 0 1 .2 0h.4l.2.1h-3.6l-.1-.1m-9.8.3h1.6l.8.1h.5a.1.1 0 0 1 0 .1H74.7a.5.5 0 0 1-.3 0h-.8-.1a.4.4 0 0 1-.4 0c0-.1 0 0-.1 0-.2 0-.2 0-.3-.2m16.3.3c0-.1.1-.1.2 0H91a.3.3 0 0 1 .2 0c0 .1.1.1.2 0a.3.3 0 0 1 .2 0c.3.2.5.2.7.1l.1.1h-2.5l-.2-.1h-.5-.1m-.2 0l-2-.2h2v.1m-21-1.3h-1.1a.5.5 0 0 0-.3 0 .8.8 0 0 1-.3-.1H65.5h2.2zm-6.6.7h1.1l.2-.1.1.1h-1.4m4-.9h-1.7 1.6M62.7 49h-.2-1c0-.2.2-.1.4-.2h.4c.1.1.3 0 .4.2m21.3-.2H85.2c0 .2 0 .1-.1.1h-1-.1m-11.6.5h-1.1l-.4-.1h1.5zm-12.2-.5H60h-.3a3.8 3.8 0 0 1-.4 0h-.1v-.1H60.2l.1.1m10-.1h.3a.3.3 0 0 0 .2 0 .5.5 0 0 1 .3 0h.1-.8m11.3-.1H82.2v.1a5.4 5.4 0 0 1-.5 0v-.1m-22-.3l.2.1H59.3v-.1h.4" fill="#38B1DA"/><path d="M72.4 49.4l.3-.1h.6v.1h-.8m-12.4-1h.8c-.3.2-.6 0-.8.1m15.2.1c-.2.1-.6 0-.8 0h.8m2.8.6l-.6-.1h.6m-6.8-.3H72h-.5m8.7-.1a4.2 4.2 0 0 1-.4 0v-.1h.4m-6.5.6h.5a.7.7 0 0 0-.3 0h-.2m8.8-.4h.5-.5m-11.9-.4h.7-.3c-.1 0-.2.1-.4 0m24.3 2.2l.3-.2c0 .2 0 .2-.3.2m-6.4-.1v-.1h0M59.9 48h.4c0 .2-.2.1-.3.1-.1 0-.1 0 0-.1m15.7 1.5h-.5.5m-4.2-1h.5-.5m-.3-.8h-.5.5m12 1.1h.4-.4zm-6.9.2l-.1.1a.6.6 0 0 1-.3-.1h.4M59 48.7h-.3.3m5.6.5h.3v.2s-.2 0-.3-.2m24.6 1.3a.4.4 0 0 1 .3 0 .6.6 0 0 1-.3 0m-15.4-1.2l.1.1h-.3l.2-.1m-11-.4h.5a.4.4 0 0 1-.2 0h-.2m-2-.2h-.5c.1-.1.3 0 .4 0m20.2 0h0m-5.5 0h.4-.4m1.4.4h.3-.3m-4.6-1.3h-.2.2zM71 49.1a60.2 60.2 0 0 1-.3 0h.3M4.5 51h.3-.3m56.3-2a.2.2 0 0 1-.2-.1h.2zm19.6-.4h.2c0 .1 0 .1-.2 0m-10-.1a14 14 0 0 0-.2 0c0-.1 0-.1.2 0m5.8-.6c-.1.1-.1.1-.2 0h.2m19.4-.1v.1c-.1 0-.1 0 0-.1m-31.3.7h.2-.2m5.5.7h0m1.6-1.5h.2-.2m-8.5 1h-.2.2m33.8-.7v.1h-.1l.1-.1m-24.6.8h.2-.2m-65.5 2l-.1.1h.1m81.1-.6h.1v.1M62 48h.1m12.1 1.2v0M96 48.1l.1-.1H96m-17.7 1.2h0m-14-.2a53.9 53.9 0 0 1-.2 0c0-.1 0 0 .1 0m-4.7-.9h.1c0 .1 0 .1-.1 0zm28 1.2h.1m-18.1 0h-.2c0-.2.1-.2.2-.1m20.4.8h0m-.5 0h-.1.1m-.6-.6h-.1.1m-13.5-1.5h-.1.1M75.5 49.3h-.2c0-.1.1 0 .2 0M90.2 50h0m-20.8-.6h-.1.1m-9.9-2.1h.2-.2m16.2 1.9h0m2 .7h-.1M4.3 51a5.7 5.7 0 0 1-.1 0m74.3-3v.1M90.8 49.4h.1M76 49.5h-.1m5.5.6h-.1M23.9 48.8h.2-.2m-.4.2v-.5h-.1l.1-.1h1l.2.3h-.3v.2h.2-.5-.2l-.4.1m9.2-.3v-.2.2m-.4.2l.1-.4H32c.2-.2.4-.2.5-.2h.6v.4h-.2c0 .2.2 0 .2.2 0 0-.4.1-.8 0m-10.4-.5h.4l.3.1c0-.2.1 0 .2 0l.2-.1c.1 0 .2 0 .3.2v.1c-.2-.2-.3 0-.4-.1l.2.1h-.4a.2.2 0 0 0-.1-.1H22l-.1-.1h-.2m33.7 0h-.7-.9v-.1s0-.1.2 0l.2-.1H55.4l.1.1m-21 .3h-.1.1m-.3-.1H34c0 .2.1.1.2 0m-.8.2l.2-.1h.2v-.1h-.1v-.1h.9a.3.3 0 0 1 .2 0v.3a.2.2 0 0 1-.2 0h-.5a.5.5 0 0 0-.1 0h-.6M21 48.6h-.3a9 9 0 0 1-.5 0h-.1l-.1-.1-.1-.1h.8l.2.1.1.1m.7 0h.3-.7l-.3-.1c.1-.1.2-.1.2 0h.3c0-.1 0-.1 0 0h.1m9.7-.1h.3v.1h-.1c0 .2.2 0 .2.2h-.4l.2-.3h-.2m8.2 0v.2h-.3l.1-.2h.2m11.5.3h-.6c0-.1.1-.2.2-.1a.4.4 0 0 0 .3 0h.1m-32.4 0h-.7.7M8 48.8h.7H8m2.4.3a.5.5 0 0 1-.4 0h.4m11-.4h.3a.6.6 0 0 1-.4 0m-16.7.6H5h-.3m5.3-.6h-.5.3c0-.1.1 0 .2 0m23.1-.3h0m21.4.4c-.1 0-.2.1-.4 0h.4zm-35.4-.2a.4.4 0 0 1-.4 0 .3.3 0 0 1 .4 0m32.7.3h-.4.4m-32.6-.4h-.4c0-.1.2 0 .2 0 0-.1.2-.1.2 0m-13.9 1l.5-.1h-.5M54 49h-.3.3m-29.2-.5h.3-.3m27.5-.4l-.2.1s0-.1.2 0m-21.4.6a.4.4 0 0 1-.3 0c0-.1.1 0 .2 0m-10.1 0h.3-.3m-10.6.5h-.2c0-.1.1-.1.2 0m39.3-.5c0-.1 0-.1.1 0h-.1m-33.7.2h-.3.3m19.5-.6h.2c0 .1-.1 0-.2 0m-26.6 1c.1 0 .2-.1.4 0h-.4m11.5-.5a54 54 0 0 0-.2 0c.1-.1.1-.1.2 0zm29.1-.1H49v-.1h.2m-24.3.1h-.2c0-.1 0-.1.2 0m-2.8 0h0m32.8.1h-.2.2m-24.3-.4h.2a.2.2 0 0 1-.2 0m24.7.2h-.1.1m-38.2 0h0m31.6 0h.1c0 .1 0 .1 0 0m-32.1-.3h0m38.3.5h.1m-24.7-.3h-.2.2zm-14 .4c0-.1.1-.1.2 0h-.2m36.5-.4h-.2v-.1h.2zM17 48.3h0m12.5.2h-.2.2m-21 0h.2c0 .1 0 .1-.1 0m41 0v.1m-41.3 0h0m9.8-.1h.2-.2m35-.4V48h.1m-38.2.6h-.2.2m30 .2zM53 48h-.1M41.1 48.8H41M53.4 48.6zM74.6 46.8h.2s-.1-.1-.2 0m.6.4V47l-.4-.1s-.1 0 0 .2h.4m-.2-.6s-.1.2 0 .2l.2.1h.3v.1l-.1.2.3-.1.2-.1h.7v.1H76l.2.3c-.1.1-.2.2-.3.1h-.3a1 1 0 0 0-.7 0h-.2a5.1 5.1 0 0 0-.2-.1l-.3-.1H74V47a.1.1 0 0 1 .1 0l.2.1h.3V47l-.1-.2v-.3h.5v.1m-4.3-.5l-.3.1a5.4 5.4 0 0 0-.6 0l-1-.1h-1.1a20.9 20.9 0 0 1-.7-.1H67l.1-.1h1.9l.6.1h.3l.8.1h.1m17.3 1h-.7-.3l-.8-.1h-.5-.3l.3-.1h1.8l.5.1m-2.5 0v.2h.6l-.2.1.1.1a.2.2 0 0 1-.1 0H85.3c0-.1.2 0 .2 0a.6.6 0 0 0 .2 0c0-.2-.2-.1-.4-.1H85v-.1h.4l.1-.1h.1m-12.8-.8H71v-.1h1.7m5.7.4h-.1a34.4 34.4 0 0 1-.7 0l-.7-.1h-.4-.1l.2-.1h1.5l.3.1m7.8.8a.4.4 0 0 1 .2 0H87.7c0 .1-.1.2-.3.2v-.2l-.1.1c0 .2-.2 0-.2 0h.1-.4-.3l-.3-.1m-10.4-1.1h-.2c.1.1.2.1.2 0m.5.2h-1l.2-.2V46h.5l.1.1c0 .2.1.2.2.3m-14.1-.6h1.4a1.3 1.3 0 0 1-.5 0h-.9m26.3 1.6a.7.7 0 0 1-.3.3v-.3l-.1.2-.1-.2h-.2.7" fill="#38B1DA"/><path d="M75.2 46.7l.2-.1h.4a.1.1 0 0 1 0 .1h-.6M75 46a2.8 2.8 0 0 1-1 0h.6c.2-.1.3 0 .4 0m.3.3h.7l.3.1h-1m10.1.5h-.8a33.2 33.2 0 0 1 .8 0M61 46.1h-.4l.2-.2c.1 0 .2 0 .2.2m1.1-.3h-.7.7m.1.9v-.2h.4l-.2.1h-.2m20.1.5h-.4c0-.2.1-.2.2-.1h.2m.8 0h.2l.2.2H83V47m-1 .1c0 .2 0 .1-.2.1v-.1h.3m11.2.8l.4.1c-.2.1-.3 0-.4-.1M59 46.5h.5-.5m23.6.5l.3-.1v.2h-.3m-13-.3a.8.8 0 0 1 .4 0c-.1 0-.3.1-.4 0M92 48h-.5.5m-31.5-2.2a.7.7 0 0 1 .4 0h-.4m12.9.3H73h.4m-5 .4h0M88 47h.5-.5m-14.7-1.5c0 .2-.1.2-.3.1h.3M93.8 48h.3v.1h-.2V48m-21-1.8a.6.6 0 0 1 .4 0c-.2.1-.3.1-.4 0m4.5.1h-.5.5m-13.2-.5h.5c0 .1 0 0-.1 0a.5.5 0 0 0-.3 0c0 .1 0 0 0 0M77 46h-.4.4m-.7.8l.2-.1v.1h-.2m-2.6-1h0m-7.3.3H66c.1-.2.2-.1.3 0h.2m10 .3h0m-.1-.2H76c.2-.1.3 0 .4 0m8.3 1.3h-.3c0-.1.1-.1.2 0m-9.2-1.7h.4c-.1.2-.3 0-.4 0m-15.5.9h-.3c0-.2 0-.1.1 0h.2m30.8 1h.2c-.1.2-.2.2-.3 0m-27.2-1h-.2c.1-.1.1-.1.2 0m13.8.4h-.4c.2-.1.2-.1.4 0m6.3.1h.3-.3m-9-.8h.3c0 .1-.2 0-.2 0m-9.2-.4h-.2.2m-6.6-.6v-.1c0-.1 0-.1 0 0m15.1 1.1h-.2.2m.1.5h.3-.3m8.9.4h.2c0 .1-.1 0-.2 0M60.2 46s0 .1 0 0H60h.1m14.1 0l.2.1c0 .1-.1 0-.2 0m6 .8h.1m-6.7-.3h-.2c.1-.1.2 0 .2 0m-8.4-.5s0 .1-.2 0h.1m9.1.2h-.1.1M92.4 48h-.1.1M75 46.3h.1c0 .1 0 .1-.1 0m.2-.3h0m7.2.8h-.2.2m-3 .3h.2-.2m1-.2h-.2.1M60 45.8h0m24.5 1.4c0-.1 0-.1.1 0h-.1m-4.7-.6h.1-.1m1 .1h-.1.1M90 48h0m-9.5-1.2h-.2.2m.8.5h0M64 45.8h-.2.2m15.3 1v.1m-5.8-.2h.3-.3m.7 0v-.1m-.4 0h-.1.1m19 1.4h.1m-11.7-1h-.1v-.1m7.8.2h-.1M89.2 47.8H89M82.4 47.2v.1M90.9 47.9v.1m-40.8-.7H50m29.8.5zm-6.4-4.1s.1-.1.2 0h-.2m2.5 0c0 .2 0 .2-.1.1h.1m-2 0v-.1m-34-.8a.4.4 0 0 1-.3 0h-.3s-.1.1-.2 0H40zm10.8 2.9h-.6.6m.8 0H51h.5m.1-.3v-.1m0 0l.1.1m6.5-2.2H58m-7.4 0h.3-.3M40.4 43.4h-.2.2m3 0h-.2.1m49.7 5h.2c0 .1-.1.1-.2 0" fill="#38B1DA"/><path fill="#000" d="M.3 1.6h21v5.7H7v6.9h11.4v5.7H7v12.5H.3zm44.4 30.8h-6.1v-3c-.7 1-1.6 1.8-2.7 2.5-1.2.6-2.6.9-4 .9-1.7 0-3.2-.4-4.4-1.1a7.8 7.8 0 0 1-2.9-3.1c-.7-1.4-1-2.9-1-4.5V10.2h6.1v12.5c0 1.3.4 2.5 1.2 3.3a4 4 0 0 0 3 1.3c1.4 0 2.5-.4 3.4-1.4a5 5 0 0 0 1.3-3.5V10.2h6.1v22.2zm4.5-22.2h6.2v3.1c.6-1 1.5-2 2.7-2.5 1.2-.6 2.5-1 4-1 1.7 0 3.2.5 4.4 1.2 1.3.7 2.2 1.7 3 3 .6 1.4 1 2.9 1 4.6v13.8h-6.2V20c0-1.4-.4-2.5-1.2-3.4a4 4 0 0 0-3.1-1.3c-1.4 0-2.5.5-3.3 1.4a5 5 0 0 0-1.3 3.6v12.1h-6.2V10.2z"/><g transform="translate(73.6 .1)"><mask id="d" fill="#fff"><use xlink:href="#c"/></mask><path d="M15.6 25.7c1-1.1 1.5-2.6 1.5-4.5s-.5-3.4-1.5-4.5a5 5 0 0 0-4-1.7 5 5 0 0 0-3.9 1.7 6.6 6.6 0 0 0-1.4 4.5c0 1.9.5 3.4 1.5 4.5s2.3 1.7 3.9 1.7 2.9-.6 3.9-1.7M5.1 31.2a9.2 9.2 0 0 1-3.7-4c-.8-1.7-1.2-3.7-1.2-6s.4-4.3 1.2-6c.9-1.8 2-3 3.6-4a10.6 10.6 0 0 1 9.2-.7c1 .5 1.9 1.1 2.5 2V.5H23v31.8h-6.2V30c-.6.8-1.4 1.5-2.5 2a8.4 8.4 0 0 1-3.5.8c-2.2 0-4-.5-5.6-1.5" fill="#000" mask="url(#d)"/></g><g transform="translate(101.2 .1)"><mask id="f" fill="#fff"><use xlink:href="#e"/></mask><path d="M15.7 25.7c1-1.1 1.5-2.6 1.5-4.5s-.5-3.4-1.5-4.5a5 5 0 0 0-4-1.7 5 5 0 0 0-3.9 1.7 6.6 6.6 0 0 0-1.5 4.5c0 1.9.5 3.4 1.5 4.5a5 5 0 0 0 4 1.7 5 5 0 0 0 4-1.7m-6.6 6.2c-1-.5-2-1.2-2.5-2v2.4H.5V.5h6.2v12c.6-.9 1.5-1.5 2.5-2s2.3-.7 3.6-.7c2.2 0 4 .4 5.6 1.4 1.6 1 2.8 2.2 3.6 4 .8 1.7 1.2 3.7 1.2 6 0 3.5-.9 6.3-2.7 8.4a9.8 9.8 0 0 1-7.7 3c-1.3 0-2.5-.2-3.6-.7" fill="#000" mask="url(#f)"/></g><path d="M142.4 25.8c1-1.2 1.5-2.6 1.5-4.5 0-1.8-.5-3.3-1.5-4.5s-2.4-1.7-4-1.7c-1.7 0-3 .6-4 1.7a6.5 6.5 0 0 0-1.6 4.5c0 1.9.5 3.3 1.5 4.5 1 1.1 2.4 1.7 4 1.7 1.7 0 3-.6 4-1.7m-10 5.5c-1.8-1-3.2-2.3-4.2-4-1-1.8-1.5-3.8-1.5-6 0-2.1.5-4.1 1.5-5.8 1-1.8 2.4-3.2 4.2-4.1 1.8-1 3.8-1.5 6-1.5 2.3 0 4.3.5 6 1.5 1.9 1 3.3 2.3 4.3 4 1 1.8 1.5 3.8 1.5 6 0 2.1-.5 4-1.5 5.8-1 1.8-2.4 3.1-4.2 4.1-1.8 1-3.8 1.5-6 1.5-2.3 0-4.3-.5-6-1.5m33.8 1.1l-4.8-6.8-4.8 6.8H150l8-11.6-7.4-10.6h6.7l4 5.9 4.1-5.9h6.8L164.7 21l8 11.5z" fill="#000"/></g></svg>